<svg width="391" height="133" viewBox="0 0 391 133" fill="none" xmlns="http://www.w3.org/2000/svg">
<g filter="url(#filter0_d)">
<rect x="40" y="24" width="311" height="53" rx="4" fill="#007B8E"/>
</g>
<path d="M135.654 55.6201H141.719V57H133.958V44.2031H135.654V55.6201ZM145.155 57H143.529V43.5H145.155V57ZM151.712 57.1758C150.423 57.1758 149.374 56.7539 148.565 55.9102C147.757 55.0605 147.353 53.9268 147.353 52.5088V52.21C147.353 51.2666 147.531 50.4258 147.889 49.6875C148.252 48.9434 148.756 48.3633 149.4 47.9473C150.051 47.5254 150.754 47.3145 151.51 47.3145C152.746 47.3145 153.707 47.7217 154.393 48.5361C155.078 49.3506 155.421 50.5166 155.421 52.0342V52.7109H148.979C149.002 53.6484 149.274 54.4072 149.796 54.9873C150.323 55.5615 150.991 55.8486 151.8 55.8486C152.374 55.8486 152.86 55.7314 153.259 55.4971C153.657 55.2627 154.006 54.9521 154.305 54.5654L155.298 55.3389C154.501 56.5635 153.306 57.1758 151.712 57.1758ZM151.51 48.6504C150.854 48.6504 150.303 48.8906 149.857 49.3711C149.412 49.8457 149.137 50.5137 149.031 51.375H153.795V51.252C153.748 50.4258 153.525 49.7871 153.127 49.3359C152.729 48.8789 152.189 48.6504 151.51 48.6504ZM160.325 54.7939L162.681 47.4902H164.342L160.932 57H159.692L156.247 47.4902H157.908L160.325 54.7939ZM171.637 57C171.543 56.8125 171.467 56.4785 171.408 55.998C170.652 56.7832 169.75 57.1758 168.701 57.1758C167.764 57.1758 166.993 56.9121 166.39 56.3848C165.792 55.8516 165.493 55.1777 165.493 54.3633C165.493 53.373 165.868 52.6055 166.618 52.0605C167.374 51.5098 168.435 51.2344 169.8 51.2344H171.382V50.4873C171.382 49.9189 171.212 49.4678 170.872 49.1338C170.532 48.7939 170.031 48.624 169.369 48.624C168.789 48.624 168.303 48.7705 167.91 49.0635C167.518 49.3564 167.321 49.7109 167.321 50.127H165.687C165.687 49.6523 165.854 49.1953 166.188 48.7559C166.527 48.3105 166.984 47.959 167.559 47.7012C168.139 47.4434 168.774 47.3145 169.466 47.3145C170.562 47.3145 171.42 47.5898 172.041 48.1406C172.662 48.6855 172.984 49.4385 173.008 50.3994V54.7764C173.008 55.6494 173.119 56.3438 173.342 56.8594V57H171.637ZM168.938 55.7607C169.448 55.7607 169.932 55.6289 170.389 55.3652C170.846 55.1016 171.177 54.7588 171.382 54.3369V52.3857H170.107C168.115 52.3857 167.119 52.9688 167.119 54.1348C167.119 54.6445 167.289 55.043 167.629 55.3301C167.969 55.6172 168.405 55.7607 168.938 55.7607ZM177.086 47.4902L177.13 48.5449C177.827 47.7246 178.768 47.3145 179.951 47.3145C181.281 47.3145 182.187 47.8242 182.667 48.8438C182.983 48.3867 183.394 48.0176 183.897 47.7363C184.407 47.4551 185.008 47.3145 185.699 47.3145C187.785 47.3145 188.846 48.4189 188.881 50.6279V57H187.255V50.7246C187.255 50.0449 187.1 49.5381 186.789 49.2041C186.479 48.8643 185.957 48.6943 185.225 48.6943C184.621 48.6943 184.12 48.876 183.722 49.2393C183.323 49.5967 183.092 50.0801 183.027 50.6895V57H181.393V50.7686C181.393 49.3857 180.716 48.6943 179.362 48.6943C178.296 48.6943 177.566 49.1484 177.174 50.0566V57H175.548V47.4902H177.086ZM195.288 57.1758C193.999 57.1758 192.95 56.7539 192.142 55.9102C191.333 55.0605 190.929 53.9268 190.929 52.5088V52.21C190.929 51.2666 191.107 50.4258 191.465 49.6875C191.828 48.9434 192.332 48.3633 192.977 47.9473C193.627 47.5254 194.33 47.3145 195.086 47.3145C196.322 47.3145 197.283 47.7217 197.969 48.5361C198.654 49.3506 198.997 50.5166 198.997 52.0342V52.7109H192.555C192.578 53.6484 192.851 54.4072 193.372 54.9873C193.899 55.5615 194.567 55.8486 195.376 55.8486C195.95 55.8486 196.437 55.7314 196.835 55.4971C197.233 55.2627 197.582 54.9521 197.881 54.5654L198.874 55.3389C198.077 56.5635 196.882 57.1758 195.288 57.1758ZM195.086 48.6504C194.43 48.6504 193.879 48.8906 193.434 49.3711C192.988 49.8457 192.713 50.5137 192.607 51.375H197.371V51.252C197.324 50.4258 197.102 49.7871 196.703 49.3359C196.305 48.8789 195.766 48.6504 195.086 48.6504ZM211.223 57C211.129 56.8125 211.053 56.4785 210.994 55.998C210.238 56.7832 209.336 57.1758 208.287 57.1758C207.35 57.1758 206.579 56.9121 205.976 56.3848C205.378 55.8516 205.079 55.1777 205.079 54.3633C205.079 53.373 205.454 52.6055 206.204 52.0605C206.96 51.5098 208.021 51.2344 209.386 51.2344H210.968V50.4873C210.968 49.9189 210.798 49.4678 210.458 49.1338C210.118 48.7939 209.617 48.624 208.955 48.624C208.375 48.624 207.889 48.7705 207.496 49.0635C207.104 49.3564 206.907 49.7109 206.907 50.127H205.272C205.272 49.6523 205.439 49.1953 205.773 48.7559C206.113 48.3105 206.57 47.959 207.145 47.7012C207.725 47.4434 208.36 47.3145 209.052 47.3145C210.147 47.3145 211.006 47.5898 211.627 48.1406C212.248 48.6855 212.57 49.4385 212.594 50.3994V54.7764C212.594 55.6494 212.705 56.3438 212.928 56.8594V57H211.223ZM208.524 55.7607C209.034 55.7607 209.518 55.6289 209.975 55.3652C210.432 55.1016 210.763 54.7588 210.968 54.3369V52.3857H209.693C207.701 52.3857 206.705 52.9688 206.705 54.1348C206.705 54.6445 206.875 55.043 207.215 55.3301C207.555 55.6172 207.991 55.7607 208.524 55.7607ZM229.636 51.0146C229.636 52.251 229.439 53.3174 229.047 54.2139C228.654 55.1045 228.104 55.8018 227.395 56.3057L229.68 58.0986L228.528 59.1621L225.83 57.0176C225.408 57.123 224.963 57.1758 224.494 57.1758C223.486 57.1758 222.593 56.9297 221.813 56.4375C221.034 55.9395 220.428 55.2334 219.994 54.3193C219.566 53.3994 219.347 52.3359 219.335 51.1289V50.2061C219.335 48.9756 219.549 47.8887 219.977 46.9453C220.404 46.002 221.008 45.2812 221.787 44.7832C222.572 44.2793 223.469 44.0273 224.477 44.0273C225.508 44.0273 226.413 44.2764 227.192 44.7744C227.978 45.2725 228.581 45.9902 229.003 46.9277C229.425 47.8594 229.636 48.9492 229.636 50.1973V51.0146ZM227.948 50.1885C227.948 48.6826 227.646 47.5225 227.043 46.708C226.445 45.8877 225.59 45.4775 224.477 45.4775C223.416 45.4775 222.578 45.8848 221.963 46.6992C221.354 47.5078 221.04 48.6328 221.022 50.0742V51.0146C221.022 52.4795 221.327 53.6338 221.937 54.4775C222.552 55.3213 223.404 55.7432 224.494 55.7432C225.584 55.7432 226.428 55.3477 227.025 54.5566C227.623 53.7598 227.931 52.6201 227.948 51.1377V50.1885ZM232.527 57V48.7471H231.024V47.4902H232.527V46.6816C232.527 45.6211 232.829 44.7949 233.433 44.2031C234.042 43.6113 234.9 43.3154 236.008 43.3154C236.664 43.3154 237.493 43.4941 238.495 43.8516L238.223 45.2227C237.49 44.9297 236.793 44.7832 236.131 44.7832C235.434 44.7832 234.93 44.9414 234.619 45.2578C234.314 45.5684 234.162 46.0371 234.162 46.6641V47.4902H236.104V48.7471H234.162V57H232.527ZM239.304 57H237.669V47.4902H239.304V57ZM243.716 57H242.09V43.5H243.716V57ZM252.197 57C252.104 56.8125 252.027 56.4785 251.969 55.998C251.213 56.7832 250.311 57.1758 249.262 57.1758C248.324 57.1758 247.554 56.9121 246.95 56.3848C246.353 55.8516 246.054 55.1777 246.054 54.3633C246.054 53.373 246.429 52.6055 247.179 52.0605C247.935 51.5098 248.995 51.2344 250.36 51.2344H251.942V50.4873C251.942 49.9189 251.772 49.4678 251.433 49.1338C251.093 48.7939 250.592 48.624 249.93 48.624C249.35 48.624 248.863 48.7705 248.471 49.0635C248.078 49.3564 247.882 49.7109 247.882 50.127H246.247C246.247 49.6523 246.414 49.1953 246.748 48.7559C247.088 48.3105 247.545 47.959 248.119 47.7012C248.699 47.4434 249.335 47.3145 250.026 47.3145C251.122 47.3145 251.98 47.5898 252.602 48.1406C253.223 48.6855 253.545 49.4385 253.568 50.3994V54.7764C253.568 55.6494 253.68 56.3438 253.902 56.8594V57H252.197ZM249.499 55.7607C250.009 55.7607 250.492 55.6289 250.949 55.3652C251.406 55.1016 251.737 54.7588 251.942 54.3369V52.3857H250.668C248.676 52.3857 247.68 52.9688 247.68 54.1348C247.68 54.6445 247.85 55.043 248.189 55.3301C248.529 55.6172 248.966 55.7607 249.499 55.7607ZM257.937 53.3877H256.469L256.354 44.2031H258.06L257.937 53.3877ZM256.293 56.1826C256.293 55.9189 256.372 55.6992 256.53 55.5234C256.694 55.3418 256.935 55.251 257.251 55.251C257.567 55.251 257.808 55.3418 257.972 55.5234C258.136 55.6992 258.218 55.9189 258.218 56.1826C258.218 56.4463 258.136 56.666 257.972 56.8418C257.808 57.0117 257.567 57.0967 257.251 57.0967C256.935 57.0967 256.694 57.0117 256.53 56.8418C256.372 56.666 256.293 56.4463 256.293 56.1826Z" fill="white"/>
<defs>
<filter id="filter0_d" x="0" y="0" width="391" height="133" filterUnits="userSpaceOnUse" color-interpolation-filters="sRGB">
<feFlood flood-opacity="0" result="BackgroundImageFix"/>
<feColorMatrix in="SourceAlpha" type="matrix" values="0 0 0 0 0 0 0 0 0 0 0 0 0 0 0 0 0 0 127 0"/>
<feOffset dy="16"/>
<feGaussianBlur stdDeviation="20"/>
<feColorMatrix type="matrix" values="0 0 0 0 1 0 0 0 0 1 0 0 0 0 1 0 0 0 0.08 0"/>
<feBlend mode="normal" in2="BackgroundImageFix" result="effect1_dropShadow"/>
<feBlend mode="normal" in="SourceGraphic" in2="effect1_dropShadow" result="shape"/>
</filter>
</defs>
</svg>
