<svg width="495" height="171" viewBox="0 0 495 171" fill="none" xmlns="http://www.w3.org/2000/svg">
<rect width="99" height="37" fill="#007B8E"/>
<path d="M28.2734 12.625L31.9922 21.9062L35.7109 12.625H37.6562V24H36.1562V19.5703L36.2969 14.7891L32.5625 24H31.4141L27.6875 14.8125L27.8359 19.5703V24H26.3359V12.625H28.2734ZM39.6953 19.6953C39.6953 18.8672 39.8568 18.1224 40.1797 17.4609C40.5078 16.7995 40.9609 16.2891 41.5391 15.9297C42.1224 15.5703 42.7865 15.3906 43.5312 15.3906C44.6823 15.3906 45.612 15.7891 46.3203 16.5859C47.0339 17.3828 47.3906 18.4427 47.3906 19.7656V19.8672C47.3906 20.6901 47.2318 21.4297 46.9141 22.0859C46.6016 22.737 46.151 23.2448 45.5625 23.6094C44.9792 23.974 44.3073 24.1562 43.5469 24.1562C42.401 24.1562 41.4714 23.7578 40.7578 22.9609C40.0495 22.1641 39.6953 21.1094 39.6953 19.7969V19.6953ZM41.1484 19.8672C41.1484 20.8047 41.3646 21.5573 41.7969 22.125C42.2344 22.6927 42.8177 22.9766 43.5469 22.9766C44.2812 22.9766 44.8646 22.6901 45.2969 22.1172C45.7292 21.5391 45.9453 20.7318 45.9453 19.6953C45.9453 18.7682 45.724 18.0182 45.2812 17.4453C44.8438 16.8672 44.2604 16.5781 43.5312 16.5781C42.8177 16.5781 42.2422 16.862 41.8047 17.4297C41.3672 17.9974 41.1484 18.8099 41.1484 19.8672ZM51.1641 13.5V15.5469H52.7422V16.6641H51.1641V21.9062C51.1641 22.2448 51.2344 22.5 51.375 22.6719C51.5156 22.8385 51.7552 22.9219 52.0938 22.9219C52.2604 22.9219 52.4896 22.8906 52.7812 22.8281V24C52.401 24.1042 52.0312 24.1562 51.6719 24.1562C51.026 24.1562 50.5391 23.9609 50.2109 23.5703C49.8828 23.1797 49.7188 22.625 49.7188 21.9062V16.6641H48.1797V15.5469H49.7188V13.5H51.1641ZM56.0078 24H54.5625V15.5469H56.0078V24ZM54.4453 13.3047C54.4453 13.0703 54.5156 12.8724 54.6562 12.7109C54.8021 12.5495 55.0156 12.4688 55.2969 12.4688C55.5781 12.4688 55.7917 12.5495 55.9375 12.7109C56.0833 12.8724 56.1562 13.0703 56.1562 13.3047C56.1562 13.5391 56.0833 13.7344 55.9375 13.8906C55.7917 14.0469 55.5781 14.125 55.2969 14.125C55.0156 14.125 54.8021 14.0469 54.6562 13.8906C54.5156 13.7344 54.4453 13.5391 54.4453 13.3047ZM61.1172 22.0391L63.2109 15.5469H64.6875L61.6562 24H60.5547L57.4922 15.5469H58.9688L61.1172 22.0391ZM65.5703 19.6953C65.5703 18.8672 65.7318 18.1224 66.0547 17.4609C66.3828 16.7995 66.8359 16.2891 67.4141 15.9297C67.9974 15.5703 68.6615 15.3906 69.4062 15.3906C70.5573 15.3906 71.487 15.7891 72.1953 16.5859C72.9089 17.3828 73.2656 18.4427 73.2656 19.7656V19.8672C73.2656 20.6901 73.1068 21.4297 72.7891 22.0859C72.4766 22.737 72.026 23.2448 71.4375 23.6094C70.8542 23.974 70.1823 24.1562 69.4219 24.1562C68.276 24.1562 67.3464 23.7578 66.6328 22.9609C65.9245 22.1641 65.5703 21.1094 65.5703 19.7969V19.6953ZM67.0234 19.8672C67.0234 20.8047 67.2396 21.5573 67.6719 22.125C68.1094 22.6927 68.6927 22.9766 69.4219 22.9766C70.1562 22.9766 70.7396 22.6901 71.1719 22.1172C71.6042 21.5391 71.8203 20.7318 71.8203 19.6953C71.8203 18.7682 71.599 18.0182 71.1562 17.4453C70.7188 16.8672 70.1354 16.5781 69.4062 16.5781C68.6927 16.5781 68.1172 16.862 67.6797 17.4297C67.2422 17.9974 67.0234 18.8099 67.0234 19.8672Z" fill="white"/>
<rect y="37" width="99" height="68" fill="white"/>
<path d="M25.5703 64.0312H20.8047L19.7344 67H18.1875L22.5312 55.625H23.8438L28.1953 67H26.6562L25.5703 64.0312ZM21.2578 62.7969H25.125L23.1875 57.4766L21.2578 62.7969ZM31.3203 56.5V58.5469H32.8984V59.6641H31.3203V64.9062C31.3203 65.2448 31.3906 65.5 31.5312 65.6719C31.6719 65.8385 31.9115 65.9219 32.25 65.9219C32.4167 65.9219 32.6458 65.8906 32.9375 65.8281V67C32.5573 67.1042 32.1875 67.1562 31.8281 67.1562C31.1823 67.1562 30.6953 66.9609 30.3672 66.5703C30.0391 66.1797 29.875 65.625 29.875 64.9062V59.6641H28.3359V58.5469H29.875V56.5H31.3203ZM38.1016 67.1562C36.9557 67.1562 36.0234 66.7812 35.3047 66.0312C34.5859 65.276 34.2266 64.2682 34.2266 63.0078V62.7422C34.2266 61.9036 34.3854 61.1562 34.7031 60.5C35.026 59.8385 35.474 59.3229 36.0469 58.9531C36.625 58.5781 37.25 58.3906 37.9219 58.3906C39.0208 58.3906 39.875 58.7526 40.4844 59.4766C41.0938 60.2005 41.3984 61.237 41.3984 62.5859V63.1875H35.6719C35.6927 64.0208 35.9349 64.6953 36.3984 65.2109C36.8672 65.7214 37.4609 65.9766 38.1797 65.9766C38.6901 65.9766 39.1224 65.8724 39.4766 65.6641C39.8307 65.4557 40.1406 65.1797 40.4062 64.8359L41.2891 65.5234C40.5807 66.612 39.5182 67.1562 38.1016 67.1562ZM37.9219 59.5781C37.3385 59.5781 36.849 59.7917 36.4531 60.2188C36.0573 60.6406 35.8125 61.2344 35.7188 62H39.9531V61.8906C39.9115 61.1562 39.7135 60.5885 39.3594 60.1875C39.0052 59.7812 38.526 59.5781 37.9219 59.5781ZM44.4453 58.5469L44.4922 59.6094C45.138 58.7969 45.9818 58.3906 47.0234 58.3906C48.8099 58.3906 49.7109 59.3984 49.7266 61.4141V67H48.2812V61.4062C48.276 60.7969 48.1354 60.3464 47.8594 60.0547C47.5885 59.763 47.1641 59.6172 46.5859 59.6172C46.1172 59.6172 45.7057 59.7422 45.3516 59.9922C44.9974 60.2422 44.7214 60.5703 44.5234 60.9766V67H43.0781V58.5469H44.4453ZM55.2969 65.9766C55.8125 65.9766 56.263 65.8203 56.6484 65.5078C57.0339 65.1953 57.2474 64.8047 57.2891 64.3359H58.6562C58.6302 64.8203 58.4635 65.2812 58.1562 65.7188C57.849 66.1562 57.4375 66.5052 56.9219 66.7656C56.4115 67.026 55.8698 67.1562 55.2969 67.1562C54.1458 67.1562 53.2292 66.7734 52.5469 66.0078C51.8698 65.237 51.5312 64.1849 51.5312 62.8516V62.6094C51.5312 61.7865 51.6823 61.0547 51.9844 60.4141C52.2865 59.7734 52.7188 59.276 53.2812 58.9219C53.849 58.5677 54.5182 58.3906 55.2891 58.3906C56.237 58.3906 57.0234 58.6745 57.6484 59.2422C58.2786 59.8099 58.6146 60.5469 58.6562 61.4531H57.2891C57.2474 60.9062 57.0391 60.4583 56.6641 60.1094C56.2943 59.7552 55.8359 59.5781 55.2891 59.5781C54.5547 59.5781 53.9844 59.8438 53.5781 60.375C53.1771 60.901 52.9766 61.6641 52.9766 62.6641V62.9375C52.9766 63.9115 53.1771 64.6615 53.5781 65.1875C53.9792 65.7135 54.5521 65.9766 55.2969 65.9766ZM61.8516 67H60.4062V58.5469H61.8516V67ZM60.2891 56.3047C60.2891 56.0703 60.3594 55.8724 60.5 55.7109C60.6458 55.5495 60.8594 55.4688 61.1406 55.4688C61.4219 55.4688 61.6354 55.5495 61.7812 55.7109C61.9271 55.8724 62 56.0703 62 56.3047C62 56.5391 61.9271 56.7344 61.7812 56.8906C61.6354 57.0469 61.4219 57.125 61.1406 57.125C60.8594 57.125 60.6458 57.0469 60.5 56.8906C60.3594 56.7344 60.2891 56.5391 60.2891 56.3047ZM63.7891 62.6953C63.7891 61.8672 63.9505 61.1224 64.2734 60.4609C64.6016 59.7995 65.0547 59.2891 65.6328 58.9297C66.2161 58.5703 66.8802 58.3906 67.625 58.3906C68.776 58.3906 69.7057 58.7891 70.4141 59.5859C71.1276 60.3828 71.4844 61.4427 71.4844 62.7656V62.8672C71.4844 63.6901 71.3255 64.4297 71.0078 65.0859C70.6953 65.737 70.2448 66.2448 69.6562 66.6094C69.0729 66.974 68.401 67.1562 67.6406 67.1562C66.4948 67.1562 65.5651 66.7578 64.8516 65.9609C64.1432 65.1641 63.7891 64.1094 63.7891 62.7969V62.6953ZM65.2422 62.8672C65.2422 63.8047 65.4583 64.5573 65.8906 65.125C66.3281 65.6927 66.9115 65.9766 67.6406 65.9766C68.375 65.9766 68.9583 65.6901 69.3906 65.1172C69.8229 64.5391 70.0391 63.7318 70.0391 62.6953C70.0391 61.7682 69.8177 61.0182 69.375 60.4453C68.9375 59.8672 68.3542 59.5781 67.625 59.5781C66.9115 59.5781 66.3359 59.862 65.8984 60.4297C65.4609 60.9974 65.2422 61.8099 65.2422 62.8672ZM68.2812 55H70.0312L67.9375 57.2969H66.7734L68.2812 55ZM74.6641 58.5469L74.7109 59.6094C75.3568 58.7969 76.2005 58.3906 77.2422 58.3906C79.0286 58.3906 79.9297 59.3984 79.9453 61.4141V67H78.5V61.4062C78.4948 60.7969 78.3542 60.3464 78.0781 60.0547C77.8073 59.763 77.3828 59.6172 76.8047 59.6172C76.3359 59.6172 75.9245 59.7422 75.5703 59.9922C75.2161 60.2422 74.9401 60.5703 74.7422 60.9766V67H73.2969V58.5469H74.6641ZM35.1562 82.3906C35.0156 83.5938 34.5703 84.5234 33.8203 85.1797C33.0755 85.8307 32.0833 86.1562 30.8438 86.1562C29.5 86.1562 28.4219 85.6745 27.6094 84.7109C26.8021 83.7474 26.3984 82.4583 26.3984 80.8438V79.75C26.3984 78.6927 26.5859 77.763 26.9609 76.9609C27.3411 76.1589 27.8776 75.5443 28.5703 75.1172C29.263 74.6849 30.0651 74.4688 30.9766 74.4688C32.1849 74.4688 33.1536 74.8073 33.8828 75.4844C34.612 76.1562 35.0365 77.0885 35.1562 78.2812H33.6484C33.5182 77.375 33.2344 76.7188 32.7969 76.3125C32.3646 75.9062 31.7578 75.7031 30.9766 75.7031C30.0182 75.7031 29.2656 76.0573 28.7188 76.7656C28.1771 77.474 27.9062 78.4818 27.9062 79.7891V80.8906C27.9062 82.125 28.1641 83.1068 28.6797 83.8359C29.1953 84.5651 29.9167 84.9297 30.8438 84.9297C31.6771 84.9297 32.3151 84.7422 32.7578 84.3672C33.2057 83.987 33.5026 83.3281 33.6484 82.3906H35.1562ZM38.5547 86H37.1094V74H38.5547V86ZM42.4453 86H40.9922V77.5469H42.4453V86ZM42.4609 74.0078H44.2109L42.1172 76.3047H40.9531L42.4609 74.0078ZM46.1953 77.5469L46.2422 78.6094C46.888 77.7969 47.7318 77.3906 48.7734 77.3906C50.5599 77.3906 51.4609 78.3984 51.4766 80.4141V86H50.0312V80.4062C50.026 79.7969 49.8854 79.3464 49.6094 79.0547C49.3385 78.763 48.9141 78.6172 48.3359 78.6172C47.8672 78.6172 47.4557 78.7422 47.1016 78.9922C46.7474 79.2422 46.4714 79.5703 46.2734 79.9766V86H44.8281V77.5469H46.1953ZM55.2266 86H53.7812V77.5469H55.2266V86ZM53.6641 75.3047C53.6641 75.0703 53.7344 74.8724 53.875 74.7109C54.0208 74.5495 54.2344 74.4688 54.5156 74.4688C54.7969 74.4688 55.0104 74.5495 55.1562 74.7109C55.3021 74.8724 55.375 75.0703 55.375 75.3047C55.375 75.5391 55.3021 75.7344 55.1562 75.8906C55.0104 76.0469 54.7969 76.125 54.5156 76.125C54.2344 76.125 54.0208 76.0469 53.875 75.8906C53.7344 75.7344 53.6641 75.5391 53.6641 75.3047ZM60.9375 84.9766C61.4531 84.9766 61.9036 84.8203 62.2891 84.5078C62.6745 84.1953 62.888 83.8047 62.9297 83.3359H64.2969C64.2708 83.8203 64.1042 84.2812 63.7969 84.7188C63.4896 85.1562 63.0781 85.5052 62.5625 85.7656C62.0521 86.026 61.5104 86.1562 60.9375 86.1562C59.7865 86.1562 58.8698 85.7734 58.1875 85.0078C57.5104 84.237 57.1719 83.1849 57.1719 81.8516V81.6094C57.1719 80.7865 57.3229 80.0547 57.625 79.4141C57.9271 78.7734 58.3594 78.276 58.9219 77.9219C59.4896 77.5677 60.1589 77.3906 60.9297 77.3906C61.8776 77.3906 62.6641 77.6745 63.2891 78.2422C63.9193 78.8099 64.2552 79.5469 64.2969 80.4531H62.9297C62.888 79.9062 62.6797 79.4583 62.3047 79.1094C61.9349 78.7552 61.4766 78.5781 60.9297 78.5781C60.1953 78.5781 59.625 78.8438 59.2188 79.375C58.8177 79.901 58.6172 80.6641 58.6172 81.6641V81.9375C58.6172 82.9115 58.8177 83.6615 59.2188 84.1875C59.6198 84.7135 60.1927 84.9766 60.9375 84.9766ZM71.1406 86C71.0573 85.8333 70.9896 85.5365 70.9375 85.1094C70.2656 85.8073 69.4635 86.1562 68.5312 86.1562C67.6979 86.1562 67.013 85.9219 66.4766 85.4531C65.9453 84.9792 65.6797 84.3802 65.6797 83.6562C65.6797 82.776 66.013 82.0938 66.6797 81.6094C67.3516 81.1198 68.2943 80.875 69.5078 80.875H70.9141V80.2109C70.9141 79.7057 70.763 79.3047 70.4609 79.0078C70.1589 78.7057 69.7135 78.5547 69.125 78.5547C68.6094 78.5547 68.1771 78.6849 67.8281 78.9453C67.4792 79.2057 67.3047 79.5208 67.3047 79.8906H65.8516C65.8516 79.4688 66 79.0625 66.2969 78.6719C66.599 78.276 67.0052 77.9635 67.5156 77.7344C68.0312 77.5052 68.5964 77.3906 69.2109 77.3906C70.1849 77.3906 70.9479 77.6354 71.5 78.125C72.0521 78.6094 72.3385 79.2786 72.3594 80.1328V84.0234C72.3594 84.7995 72.4583 85.4167 72.6562 85.875V86H71.1406ZM68.7422 84.8984C69.1953 84.8984 69.625 84.7812 70.0312 84.5469C70.4375 84.3125 70.7318 84.0078 70.9141 83.6328V81.8984H69.7812C68.0104 81.8984 67.125 82.4167 67.125 83.4531C67.125 83.9062 67.276 84.2604 67.5781 84.5156C67.8802 84.7708 68.2682 84.8984 68.7422 84.8984Z" fill="#007B8E"/>
<rect x="99" y="37" width="99" height="68" fill="white"/>
<path d="M134.289 76H132.836V66.3672L129.922 67.4375V66.125L134.062 64.5703H134.289V76ZM140.625 69.6094H141.711C142.393 69.599 142.93 69.4193 143.32 69.0703C143.711 68.7214 143.906 68.25 143.906 67.6562C143.906 66.3229 143.242 65.6562 141.914 65.6562C141.289 65.6562 140.789 65.8359 140.414 66.1953C140.044 66.5495 139.859 67.0208 139.859 67.6094H138.414C138.414 66.7083 138.742 65.9609 139.398 65.3672C140.06 64.7682 140.898 64.4688 141.914 64.4688C142.987 64.4688 143.828 64.7526 144.438 65.3203C145.047 65.888 145.352 66.6771 145.352 67.6875C145.352 68.1823 145.19 68.6615 144.867 69.125C144.549 69.5885 144.115 69.9349 143.562 70.1641C144.188 70.362 144.669 70.6901 145.008 71.1484C145.352 71.6068 145.523 72.1667 145.523 72.8281C145.523 73.849 145.19 74.6589 144.523 75.2578C143.857 75.8568 142.99 76.1562 141.922 76.1562C140.854 76.1562 139.984 75.8672 139.312 75.2891C138.646 74.7109 138.312 73.9479 138.312 73H139.766C139.766 73.599 139.961 74.0781 140.352 74.4375C140.742 74.7969 141.266 74.9766 141.922 74.9766C142.62 74.9766 143.154 74.7943 143.523 74.4297C143.893 74.0651 144.078 73.5417 144.078 72.8594C144.078 72.1979 143.875 71.6901 143.469 71.3359C143.062 70.9818 142.477 70.7995 141.711 70.7891H140.625V69.6094ZM147.609 75.2422C147.609 74.9922 147.682 74.7839 147.828 74.6172C147.979 74.4505 148.203 74.3672 148.5 74.3672C148.797 74.3672 149.021 74.4505 149.172 74.6172C149.328 74.7839 149.406 74.9922 149.406 75.2422C149.406 75.4818 149.328 75.6823 149.172 75.8438C149.021 76.0052 148.797 76.0859 148.5 76.0859C148.203 76.0859 147.979 76.0052 147.828 75.8438C147.682 75.6823 147.609 75.4818 147.609 75.2422ZM147.617 68.3438C147.617 68.0938 147.69 67.8854 147.836 67.7188C147.987 67.5521 148.211 67.4688 148.508 67.4688C148.805 67.4688 149.029 67.5521 149.18 67.7188C149.336 67.8854 149.414 68.0938 149.414 68.3438C149.414 68.5833 149.336 68.7839 149.18 68.9453C149.029 69.1068 148.805 69.1875 148.508 69.1875C148.211 69.1875 147.987 69.1068 147.836 68.9453C147.69 68.7839 147.617 68.5833 147.617 68.3438ZM158.516 71.1484C158.516 72.8411 158.227 74.099 157.648 74.9219C157.07 75.7448 156.167 76.1562 154.938 76.1562C153.724 76.1562 152.826 75.7552 152.242 74.9531C151.659 74.1458 151.357 72.9427 151.336 71.3438V69.4141C151.336 67.7422 151.625 66.5 152.203 65.6875C152.781 64.875 153.688 64.4688 154.922 64.4688C156.146 64.4688 157.047 64.862 157.625 65.6484C158.203 66.4297 158.5 67.638 158.516 69.2734V71.1484ZM157.07 69.1719C157.07 67.9479 156.898 67.0573 156.555 66.5C156.211 65.9375 155.667 65.6562 154.922 65.6562C154.182 65.6562 153.643 65.9349 153.305 66.4922C152.966 67.0495 152.792 67.9062 152.781 69.0625V71.375C152.781 72.6042 152.958 73.513 153.312 74.1016C153.672 74.6849 154.214 74.9766 154.938 74.9766C155.651 74.9766 156.18 74.7005 156.523 74.1484C156.872 73.5964 157.055 72.7266 157.07 71.5391V69.1719ZM167.5 71.1484C167.5 72.8411 167.211 74.099 166.633 74.9219C166.055 75.7448 165.151 76.1562 163.922 76.1562C162.708 76.1562 161.81 75.7552 161.227 74.9531C160.643 74.1458 160.341 72.9427 160.32 71.3438V69.4141C160.32 67.7422 160.609 66.5 161.188 65.6875C161.766 64.875 162.672 64.4688 163.906 64.4688C165.13 64.4688 166.031 64.862 166.609 65.6484C167.188 66.4297 167.484 67.638 167.5 69.2734V71.1484ZM166.055 69.1719C166.055 67.9479 165.883 67.0573 165.539 66.5C165.195 65.9375 164.651 65.6562 163.906 65.6562C163.167 65.6562 162.628 65.9349 162.289 66.4922C161.951 67.0495 161.776 67.9062 161.766 69.0625V71.375C161.766 72.6042 161.943 73.513 162.297 74.1016C162.656 74.6849 163.198 74.9766 163.922 74.9766C164.635 74.9766 165.164 74.7005 165.508 74.1484C165.857 73.5964 166.039 72.7266 166.055 71.5391V69.1719Z" fill="#007B8E"/>
<rect x="198" y="37" width="99" height="68" fill="white"/>
<path d="M226.656 64.625L230.375 73.9062L234.094 64.625H236.039V76H234.539V71.5703L234.68 66.7891L230.945 76H229.797L226.07 66.8125L226.219 71.5703V76H224.719V64.625H226.656ZM243.68 76C243.596 75.8333 243.529 75.5365 243.477 75.1094C242.805 75.8073 242.003 76.1562 241.07 76.1562C240.237 76.1562 239.552 75.9219 239.016 75.4531C238.484 74.9792 238.219 74.3802 238.219 73.6562C238.219 72.776 238.552 72.0938 239.219 71.6094C239.891 71.1198 240.833 70.875 242.047 70.875H243.453V70.2109C243.453 69.7057 243.302 69.3047 243 69.0078C242.698 68.7057 242.253 68.5547 241.664 68.5547C241.148 68.5547 240.716 68.6849 240.367 68.9453C240.018 69.2057 239.844 69.5208 239.844 69.8906H238.391C238.391 69.4688 238.539 69.0625 238.836 68.6719C239.138 68.276 239.544 67.9635 240.055 67.7344C240.57 67.5052 241.135 67.3906 241.75 67.3906C242.724 67.3906 243.487 67.6354 244.039 68.125C244.591 68.6094 244.878 69.2786 244.898 70.1328V74.0234C244.898 74.7995 244.997 75.4167 245.195 75.875V76H243.68ZM241.281 74.8984C241.734 74.8984 242.164 74.7812 242.57 74.5469C242.977 74.3125 243.271 74.0078 243.453 73.6328V71.8984H242.32C240.549 71.8984 239.664 72.4167 239.664 73.4531C239.664 73.9062 239.815 74.2604 240.117 74.5156C240.419 74.7708 240.807 74.8984 241.281 74.8984ZM246.82 71.7031C246.82 70.3854 247.125 69.3385 247.734 68.5625C248.344 67.7812 249.151 67.3906 250.156 67.3906C251.188 67.3906 251.992 67.7552 252.57 68.4844L252.641 67.5469H253.961V75.7969C253.961 76.8906 253.635 77.7526 252.984 78.3828C252.339 79.013 251.469 79.3281 250.375 79.3281C249.766 79.3281 249.169 79.1979 248.586 78.9375C248.003 78.6771 247.557 78.3203 247.25 77.8672L248 77C248.62 77.7656 249.378 78.1484 250.273 78.1484C250.977 78.1484 251.523 77.9505 251.914 77.5547C252.31 77.1589 252.508 76.6016 252.508 75.8828V75.1562C251.93 75.8229 251.141 76.1562 250.141 76.1562C249.151 76.1562 248.349 75.7578 247.734 74.9609C247.125 74.1641 246.82 73.0781 246.82 71.7031ZM248.273 71.8672C248.273 72.8203 248.469 73.5703 248.859 74.1172C249.25 74.6589 249.797 74.9297 250.5 74.9297C251.411 74.9297 252.081 74.5156 252.508 73.6875V69.8281C252.065 69.0208 251.401 68.6172 250.516 68.6172C249.812 68.6172 249.263 68.8906 248.867 69.4375C248.471 69.9844 248.273 70.7943 248.273 71.8672ZM261.367 76C261.284 75.8333 261.216 75.5365 261.164 75.1094C260.492 75.8073 259.69 76.1562 258.758 76.1562C257.924 76.1562 257.24 75.9219 256.703 75.4531C256.172 74.9792 255.906 74.3802 255.906 73.6562C255.906 72.776 256.24 72.0938 256.906 71.6094C257.578 71.1198 258.521 70.875 259.734 70.875H261.141V70.2109C261.141 69.7057 260.99 69.3047 260.688 69.0078C260.385 68.7057 259.94 68.5547 259.352 68.5547C258.836 68.5547 258.404 68.6849 258.055 68.9453C257.706 69.2057 257.531 69.5208 257.531 69.8906H256.078C256.078 69.4688 256.227 69.0625 256.523 68.6719C256.826 68.276 257.232 67.9635 257.742 67.7344C258.258 67.5052 258.823 67.3906 259.438 67.3906C260.411 67.3906 261.174 67.6354 261.727 68.125C262.279 68.6094 262.565 69.2786 262.586 70.1328V74.0234C262.586 74.7995 262.685 75.4167 262.883 75.875V76H261.367ZM258.969 74.8984C259.422 74.8984 259.852 74.7812 260.258 74.5469C260.664 74.3125 260.958 74.0078 261.141 73.6328V71.8984H260.008C258.237 71.8984 257.352 72.4167 257.352 73.4531C257.352 73.9062 257.503 74.2604 257.805 74.5156C258.107 74.7708 258.495 74.8984 258.969 74.8984ZM266.422 76H264.977V64H266.422V76ZM270.312 76H268.859V67.5469H270.312V76ZM270.328 64.0078H272.078L269.984 66.3047H268.82L270.328 64.0078Z" fill="#007B8E"/>
<rect x="297" y="37" width="99" height="68" fill="white"/>
<path d="M328.438 74.0078L331.688 64.625H333.328L329.109 76H327.781L323.57 64.625H325.203L328.438 74.0078ZM337.797 76.1562C336.651 76.1562 335.719 75.7812 335 75.0312C334.281 74.276 333.922 73.2682 333.922 72.0078V71.7422C333.922 70.9036 334.081 70.1562 334.398 69.5C334.721 68.8385 335.169 68.3229 335.742 67.9531C336.32 67.5781 336.945 67.3906 337.617 67.3906C338.716 67.3906 339.57 67.7526 340.18 68.4766C340.789 69.2005 341.094 70.237 341.094 71.5859V72.1875H335.367C335.388 73.0208 335.63 73.6953 336.094 74.2109C336.562 74.7214 337.156 74.9766 337.875 74.9766C338.385 74.9766 338.818 74.8724 339.172 74.6641C339.526 74.4557 339.836 74.1797 340.102 73.8359L340.984 74.5234C340.276 75.612 339.214 76.1562 337.797 76.1562ZM337.617 68.5781C337.034 68.5781 336.544 68.7917 336.148 69.2188C335.753 69.6406 335.508 70.2344 335.414 71H339.648V70.8906C339.607 70.1562 339.409 69.5885 339.055 69.1875C338.701 68.7812 338.221 68.5781 337.617 68.5781ZM344.141 67.5469L344.188 68.6094C344.833 67.7969 345.677 67.3906 346.719 67.3906C348.505 67.3906 349.406 68.3984 349.422 70.4141V76H347.977V70.4062C347.971 69.7969 347.831 69.3464 347.555 69.0547C347.284 68.763 346.859 68.6172 346.281 68.6172C345.812 68.6172 345.401 68.7422 345.047 68.9922C344.693 69.2422 344.417 69.5703 344.219 69.9766V76H342.773V67.5469H344.141ZM353.562 65.5V67.5469H355.141V68.6641H353.562V73.9062C353.562 74.2448 353.633 74.5 353.773 74.6719C353.914 74.8385 354.154 74.9219 354.492 74.9219C354.659 74.9219 354.888 74.8906 355.18 74.8281V76C354.799 76.1042 354.43 76.1562 354.07 76.1562C353.424 76.1562 352.938 75.9609 352.609 75.5703C352.281 75.1797 352.117 74.625 352.117 73.9062V68.6641H350.578V67.5469H352.117V65.5H353.562ZM360.344 76.1562C359.198 76.1562 358.266 75.7812 357.547 75.0312C356.828 74.276 356.469 73.2682 356.469 72.0078V71.7422C356.469 70.9036 356.628 70.1562 356.945 69.5C357.268 68.8385 357.716 68.3229 358.289 67.9531C358.867 67.5781 359.492 67.3906 360.164 67.3906C361.263 67.3906 362.117 67.7526 362.727 68.4766C363.336 69.2005 363.641 70.237 363.641 71.5859V72.1875H357.914C357.935 73.0208 358.177 73.6953 358.641 74.2109C359.109 74.7214 359.703 74.9766 360.422 74.9766C360.932 74.9766 361.365 74.8724 361.719 74.6641C362.073 74.4557 362.383 74.1797 362.648 73.8359L363.531 74.5234C362.823 75.612 361.76 76.1562 360.344 76.1562ZM360.164 68.5781C359.581 68.5781 359.091 68.7917 358.695 69.2188C358.299 69.6406 358.055 70.2344 357.961 71H362.195V70.8906C362.154 70.1562 361.956 69.5885 361.602 69.1875C361.247 68.7812 360.768 68.5781 360.164 68.5781ZM369.406 68.8438C369.188 68.8073 368.951 68.7891 368.695 68.7891C367.747 68.7891 367.104 69.1927 366.766 70V76H365.32V67.5469H366.727L366.75 68.5234C367.224 67.7682 367.896 67.3906 368.766 67.3906C369.047 67.3906 369.26 67.4271 369.406 67.5V68.8438Z" fill="#007B8E"/>
<rect x="396" y="37" width="99" height="68" fill="white"/>
<path d="M413.609 62.3984H410.938V67H409.43V55.625H413.195C414.477 55.625 415.461 55.9167 416.148 56.5C416.841 57.0833 417.188 57.9323 417.188 59.0469C417.188 59.7552 416.995 60.3724 416.609 60.8984C416.229 61.4245 415.698 61.8177 415.016 62.0781L417.688 66.9062V67H416.078L413.609 62.3984ZM410.938 61.1719H413.242C413.987 61.1719 414.578 60.9792 415.016 60.5938C415.458 60.2083 415.68 59.6927 415.68 59.0469C415.68 58.3438 415.469 57.8047 415.047 57.4297C414.63 57.0547 414.026 56.8646 413.234 56.8594H410.938V61.1719ZM418.688 62.6953C418.688 61.8672 418.849 61.1224 419.172 60.4609C419.5 59.7995 419.953 59.2891 420.531 58.9297C421.115 58.5703 421.779 58.3906 422.523 58.3906C423.674 58.3906 424.604 58.7891 425.312 59.5859C426.026 60.3828 426.383 61.4427 426.383 62.7656V62.8672C426.383 63.6901 426.224 64.4297 425.906 65.0859C425.594 65.737 425.143 66.2448 424.555 66.6094C423.971 66.974 423.299 67.1562 422.539 67.1562C421.393 67.1562 420.464 66.7578 419.75 65.9609C419.042 65.1641 418.688 64.1094 418.688 62.7969V62.6953ZM420.141 62.8672C420.141 63.8047 420.357 64.5573 420.789 65.125C421.227 65.6927 421.81 65.9766 422.539 65.9766C423.273 65.9766 423.857 65.6901 424.289 65.1172C424.721 64.5391 424.938 63.7318 424.938 62.6953C424.938 61.7682 424.716 61.0182 424.273 60.4453C423.836 59.8672 423.253 59.5781 422.523 59.5781C421.81 59.5781 421.234 59.862 420.797 60.4297C420.359 60.9974 420.141 61.8099 420.141 62.8672ZM427.844 62.7031C427.844 61.4062 428.151 60.3646 428.766 59.5781C429.38 58.7865 430.185 58.3906 431.18 58.3906C432.169 58.3906 432.953 58.7292 433.531 59.4062V55H434.977V67H433.648L433.578 66.0938C433 66.8021 432.195 67.1562 431.164 67.1562C430.185 67.1562 429.385 66.7552 428.766 65.9531C428.151 65.151 427.844 64.1042 427.844 62.8125V62.7031ZM429.289 62.8672C429.289 63.8255 429.487 64.5755 429.883 65.1172C430.279 65.6589 430.826 65.9297 431.523 65.9297C432.44 65.9297 433.109 65.5182 433.531 64.6953V60.8125C433.099 60.0156 432.435 59.6172 431.539 59.6172C430.831 59.6172 430.279 59.8906 429.883 60.4375C429.487 60.9844 429.289 61.7943 429.289 62.8672ZM441.312 59.8438C441.094 59.8073 440.857 59.7891 440.602 59.7891C439.654 59.7891 439.01 60.1927 438.672 61V67H437.227V58.5469H438.633L438.656 59.5234C439.13 58.7682 439.802 58.3906 440.672 58.3906C440.953 58.3906 441.167 58.4271 441.312 58.5V59.8438ZM444.219 67H442.766V58.5469H444.219V67ZM444.234 55.0078H445.984L443.891 57.3047H442.727L444.234 55.0078ZM446.258 62.7031C446.258 61.3854 446.562 60.3385 447.172 59.5625C447.781 58.7812 448.589 58.3906 449.594 58.3906C450.625 58.3906 451.43 58.7552 452.008 59.4844L452.078 58.5469H453.398V66.7969C453.398 67.8906 453.073 68.7526 452.422 69.3828C451.776 70.013 450.906 70.3281 449.812 70.3281C449.203 70.3281 448.607 70.1979 448.023 69.9375C447.44 69.6771 446.995 69.3203 446.688 68.8672L447.438 68C448.057 68.7656 448.815 69.1484 449.711 69.1484C450.414 69.1484 450.961 68.9505 451.352 68.5547C451.747 68.1589 451.945 67.6016 451.945 66.8828V66.1562C451.367 66.8229 450.578 67.1562 449.578 67.1562C448.589 67.1562 447.786 66.7578 447.172 65.9609C446.562 65.1641 446.258 64.0781 446.258 62.7031ZM447.711 62.8672C447.711 63.8203 447.906 64.5703 448.297 65.1172C448.688 65.6589 449.234 65.9297 449.938 65.9297C450.849 65.9297 451.518 65.5156 451.945 64.6875V60.8281C451.503 60.0208 450.839 59.6172 449.953 59.6172C449.25 59.6172 448.701 59.8906 448.305 60.4375C447.909 60.9844 447.711 61.7943 447.711 62.8672ZM460.805 66.1641C460.242 66.8255 459.417 67.1562 458.328 67.1562C457.427 67.1562 456.74 66.8958 456.266 66.375C455.797 65.849 455.56 65.0729 455.555 64.0469V58.5469H457V64.0078C457 65.2891 457.521 65.9297 458.562 65.9297C459.667 65.9297 460.401 65.5182 460.766 64.6953V58.5469H462.211V67H460.836L460.805 66.1641ZM467.922 67.1562C466.776 67.1562 465.844 66.7812 465.125 66.0312C464.406 65.276 464.047 64.2682 464.047 63.0078V62.7422C464.047 61.9036 464.206 61.1562 464.523 60.5C464.846 59.8385 465.294 59.3229 465.867 58.9531C466.445 58.5781 467.07 58.3906 467.742 58.3906C468.841 58.3906 469.695 58.7526 470.305 59.4766C470.914 60.2005 471.219 61.237 471.219 62.5859V63.1875H465.492C465.513 64.0208 465.755 64.6953 466.219 65.2109C466.688 65.7214 467.281 65.9766 468 65.9766C468.51 65.9766 468.943 65.8724 469.297 65.6641C469.651 65.4557 469.961 65.1797 470.227 64.8359L471.109 65.5234C470.401 66.612 469.339 67.1562 467.922 67.1562ZM467.742 59.5781C467.159 59.5781 466.669 59.7917 466.273 60.2188C465.878 60.6406 465.633 61.2344 465.539 62H469.773V61.8906C469.732 61.1562 469.534 60.5885 469.18 60.1875C468.826 59.7812 468.346 59.5781 467.742 59.5781ZM474.258 65.8203H479.203V67H472.492V65.9375L477.156 59.7422H472.562V58.5469H478.969V59.5703L474.258 65.8203ZM480.789 69.2656L479.969 68.7031C480.458 68.0208 480.714 67.3177 480.734 66.5938V65.2891H482.148V66.4219C482.148 66.9479 482.018 67.474 481.758 68C481.503 68.526 481.18 68.9479 480.789 69.2656ZM419.305 83.0312H414.539L413.469 86H411.922L416.266 74.625H417.578L421.93 86H420.391L419.305 83.0312ZM414.992 81.7969H418.859L416.922 76.4766L414.992 81.7969ZM424.805 86H423.359V74H424.805V86ZM430.633 86.1562C429.487 86.1562 428.555 85.7812 427.836 85.0312C427.117 84.276 426.758 83.2682 426.758 82.0078V81.7422C426.758 80.9036 426.917 80.1562 427.234 79.5C427.557 78.8385 428.005 78.3229 428.578 77.9531C429.156 77.5781 429.781 77.3906 430.453 77.3906C431.552 77.3906 432.406 77.7526 433.016 78.4766C433.625 79.2005 433.93 80.237 433.93 81.5859V82.1875H428.203C428.224 83.0208 428.466 83.6953 428.93 84.2109C429.398 84.7214 429.992 84.9766 430.711 84.9766C431.221 84.9766 431.654 84.8724 432.008 84.6641C432.362 84.4557 432.672 84.1797 432.938 83.8359L433.82 84.5234C433.112 85.612 432.049 86.1562 430.633 86.1562ZM430.453 78.5781C429.87 78.5781 429.38 78.7917 428.984 79.2188C428.589 79.6406 428.344 80.2344 428.25 81H432.484V80.8906C432.443 80.1562 432.245 79.5885 431.891 79.1875C431.536 78.7812 431.057 78.5781 430.453 78.5781ZM437.102 77.5469V86.9766C437.102 88.6016 436.365 89.4141 434.891 89.4141C434.573 89.4141 434.279 89.3672 434.008 89.2734V88.1172C434.174 88.1589 434.393 88.1797 434.664 88.1797C434.987 88.1797 435.232 88.0911 435.398 87.9141C435.57 87.7422 435.656 87.4401 435.656 87.0078V77.5469H437.102ZM435.508 75.3047C435.508 75.0755 435.578 74.8802 435.719 74.7188C435.865 74.5521 436.076 74.4688 436.352 74.4688C436.633 74.4688 436.846 74.5495 436.992 74.7109C437.138 74.8724 437.211 75.0703 437.211 75.3047C437.211 75.5391 437.138 75.7344 436.992 75.8906C436.846 76.0469 436.633 76.125 436.352 76.125C436.07 76.125 435.859 76.0469 435.719 75.8906C435.578 75.7344 435.508 75.5391 435.508 75.3047ZM444.656 86C444.573 85.8333 444.505 85.5365 444.453 85.1094C443.781 85.8073 442.979 86.1562 442.047 86.1562C441.214 86.1562 440.529 85.9219 439.992 85.4531C439.461 84.9792 439.195 84.3802 439.195 83.6562C439.195 82.776 439.529 82.0938 440.195 81.6094C440.867 81.1198 441.81 80.875 443.023 80.875H444.43V80.2109C444.43 79.7057 444.279 79.3047 443.977 79.0078C443.674 78.7057 443.229 78.5547 442.641 78.5547C442.125 78.5547 441.693 78.6849 441.344 78.9453C440.995 79.2057 440.82 79.5208 440.82 79.8906H439.367C439.367 79.4688 439.516 79.0625 439.812 78.6719C440.115 78.276 440.521 77.9635 441.031 77.7344C441.547 77.5052 442.112 77.3906 442.727 77.3906C443.701 77.3906 444.464 77.6354 445.016 78.125C445.568 78.6094 445.854 79.2786 445.875 80.1328V84.0234C445.875 84.7995 445.974 85.4167 446.172 85.875V86H444.656ZM442.258 84.8984C442.711 84.8984 443.141 84.7812 443.547 84.5469C443.953 84.3125 444.247 84.0078 444.43 83.6328V81.8984H443.297C441.526 81.8984 440.641 82.4167 440.641 83.4531C440.641 83.9062 440.792 84.2604 441.094 84.5156C441.396 84.7708 441.784 84.8984 442.258 84.8984ZM449.508 77.5469L449.555 78.6094C450.201 77.7969 451.044 77.3906 452.086 77.3906C453.872 77.3906 454.773 78.3984 454.789 80.4141V86H453.344V80.4062C453.339 79.7969 453.198 79.3464 452.922 79.0547C452.651 78.763 452.227 78.6172 451.648 78.6172C451.18 78.6172 450.768 78.7422 450.414 78.9922C450.06 79.2422 449.784 79.5703 449.586 79.9766V86H448.141V77.5469H449.508ZM456.617 81.7031C456.617 80.4062 456.924 79.3646 457.539 78.5781C458.154 77.7865 458.958 77.3906 459.953 77.3906C460.943 77.3906 461.727 77.7292 462.305 78.4062V74H463.75V86H462.422L462.352 85.0938C461.773 85.8021 460.969 86.1562 459.938 86.1562C458.958 86.1562 458.159 85.7552 457.539 84.9531C456.924 84.151 456.617 83.1042 456.617 81.8125V81.7031ZM458.062 81.8672C458.062 82.8255 458.26 83.5755 458.656 84.1172C459.052 84.6589 459.599 84.9297 460.297 84.9297C461.214 84.9297 461.883 84.5182 462.305 83.6953V79.8125C461.872 79.0156 461.208 78.6172 460.312 78.6172C459.604 78.6172 459.052 78.8906 458.656 79.4375C458.26 79.9844 458.062 80.7943 458.062 81.8672ZM470.086 78.8438C469.867 78.8073 469.63 78.7891 469.375 78.7891C468.427 78.7891 467.784 79.1927 467.445 80V86H466V77.5469H467.406L467.43 78.5234C467.904 77.7682 468.576 77.3906 469.445 77.3906C469.727 77.3906 469.94 77.4271 470.086 77.5V78.8438ZM470.883 81.6953C470.883 80.8672 471.044 80.1224 471.367 79.4609C471.695 78.7995 472.148 78.2891 472.727 77.9297C473.31 77.5703 473.974 77.3906 474.719 77.3906C475.87 77.3906 476.799 77.7891 477.508 78.5859C478.221 79.3828 478.578 80.4427 478.578 81.7656V81.8672C478.578 82.6901 478.419 83.4297 478.102 84.0859C477.789 84.737 477.339 85.2448 476.75 85.6094C476.167 85.974 475.495 86.1562 474.734 86.1562C473.589 86.1562 472.659 85.7578 471.945 84.9609C471.237 84.1641 470.883 83.1094 470.883 81.7969V81.6953ZM472.336 81.8672C472.336 82.8047 472.552 83.5573 472.984 84.125C473.422 84.6927 474.005 84.9766 474.734 84.9766C475.469 84.9766 476.052 84.6901 476.484 84.1172C476.917 83.5391 477.133 82.7318 477.133 81.6953C477.133 80.7682 476.911 80.0182 476.469 79.4453C476.031 78.8672 475.448 78.5781 474.719 78.5781C474.005 78.5781 473.43 78.862 472.992 79.4297C472.555 79.9974 472.336 80.8099 472.336 81.8672Z" fill="#007B8E"/>
<rect y="103" width="99" height="68" fill="white"/>
<path d="M25.5703 130.031H20.8047L19.7344 133H18.1875L22.5312 121.625H23.8438L28.1953 133H26.6562L25.5703 130.031ZM21.2578 128.797H25.125L23.1875 123.477L21.2578 128.797ZM31.3203 122.5V124.547H32.8984V125.664H31.3203V130.906C31.3203 131.245 31.3906 131.5 31.5312 131.672C31.6719 131.839 31.9115 131.922 32.25 131.922C32.4167 131.922 32.6458 131.891 32.9375 131.828V133C32.5573 133.104 32.1875 133.156 31.8281 133.156C31.1823 133.156 30.6953 132.961 30.3672 132.57C30.0391 132.18 29.875 131.625 29.875 130.906V125.664H28.3359V124.547H29.875V122.5H31.3203ZM38.1016 133.156C36.9557 133.156 36.0234 132.781 35.3047 132.031C34.5859 131.276 34.2266 130.268 34.2266 129.008V128.742C34.2266 127.904 34.3854 127.156 34.7031 126.5C35.026 125.839 35.474 125.323 36.0469 124.953C36.625 124.578 37.25 124.391 37.9219 124.391C39.0208 124.391 39.875 124.753 40.4844 125.477C41.0938 126.201 41.3984 127.237 41.3984 128.586V129.188H35.6719C35.6927 130.021 35.9349 130.695 36.3984 131.211C36.8672 131.721 37.4609 131.977 38.1797 131.977C38.6901 131.977 39.1224 131.872 39.4766 131.664C39.8307 131.456 40.1406 131.18 40.4062 130.836L41.2891 131.523C40.5807 132.612 39.5182 133.156 38.1016 133.156ZM37.9219 125.578C37.3385 125.578 36.849 125.792 36.4531 126.219C36.0573 126.641 35.8125 127.234 35.7188 128H39.9531V127.891C39.9115 127.156 39.7135 126.589 39.3594 126.188C39.0052 125.781 38.526 125.578 37.9219 125.578ZM44.4453 124.547L44.4922 125.609C45.138 124.797 45.9818 124.391 47.0234 124.391C48.8099 124.391 49.7109 125.398 49.7266 127.414V133H48.2812V127.406C48.276 126.797 48.1354 126.346 47.8594 126.055C47.5885 125.763 47.1641 125.617 46.5859 125.617C46.1172 125.617 45.7057 125.742 45.3516 125.992C44.9974 126.242 44.7214 126.57 44.5234 126.977V133H43.0781V124.547H44.4453ZM55.2969 131.977C55.8125 131.977 56.263 131.82 56.6484 131.508C57.0339 131.195 57.2474 130.805 57.2891 130.336H58.6562C58.6302 130.82 58.4635 131.281 58.1562 131.719C57.849 132.156 57.4375 132.505 56.9219 132.766C56.4115 133.026 55.8698 133.156 55.2969 133.156C54.1458 133.156 53.2292 132.773 52.5469 132.008C51.8698 131.237 51.5312 130.185 51.5312 128.852V128.609C51.5312 127.786 51.6823 127.055 51.9844 126.414C52.2865 125.773 52.7188 125.276 53.2812 124.922C53.849 124.568 54.5182 124.391 55.2891 124.391C56.237 124.391 57.0234 124.674 57.6484 125.242C58.2786 125.81 58.6146 126.547 58.6562 127.453H57.2891C57.2474 126.906 57.0391 126.458 56.6641 126.109C56.2943 125.755 55.8359 125.578 55.2891 125.578C54.5547 125.578 53.9844 125.844 53.5781 126.375C53.1771 126.901 52.9766 127.664 52.9766 128.664V128.938C52.9766 129.911 53.1771 130.661 53.5781 131.188C53.9792 131.714 54.5521 131.977 55.2969 131.977ZM61.8516 133H60.4062V124.547H61.8516V133ZM60.2891 122.305C60.2891 122.07 60.3594 121.872 60.5 121.711C60.6458 121.549 60.8594 121.469 61.1406 121.469C61.4219 121.469 61.6354 121.549 61.7812 121.711C61.9271 121.872 62 122.07 62 122.305C62 122.539 61.9271 122.734 61.7812 122.891C61.6354 123.047 61.4219 123.125 61.1406 123.125C60.8594 123.125 60.6458 123.047 60.5 122.891C60.3594 122.734 60.2891 122.539 60.2891 122.305ZM63.7891 128.695C63.7891 127.867 63.9505 127.122 64.2734 126.461C64.6016 125.799 65.0547 125.289 65.6328 124.93C66.2161 124.57 66.8802 124.391 67.625 124.391C68.776 124.391 69.7057 124.789 70.4141 125.586C71.1276 126.383 71.4844 127.443 71.4844 128.766V128.867C71.4844 129.69 71.3255 130.43 71.0078 131.086C70.6953 131.737 70.2448 132.245 69.6562 132.609C69.0729 132.974 68.401 133.156 67.6406 133.156C66.4948 133.156 65.5651 132.758 64.8516 131.961C64.1432 131.164 63.7891 130.109 63.7891 128.797V128.695ZM65.2422 128.867C65.2422 129.805 65.4583 130.557 65.8906 131.125C66.3281 131.693 66.9115 131.977 67.6406 131.977C68.375 131.977 68.9583 131.69 69.3906 131.117C69.8229 130.539 70.0391 129.732 70.0391 128.695C70.0391 127.768 69.8177 127.018 69.375 126.445C68.9375 125.867 68.3542 125.578 67.625 125.578C66.9115 125.578 66.3359 125.862 65.8984 126.43C65.4609 126.997 65.2422 127.81 65.2422 128.867ZM68.2812 121H70.0312L67.9375 123.297H66.7734L68.2812 121ZM74.6641 124.547L74.7109 125.609C75.3568 124.797 76.2005 124.391 77.2422 124.391C79.0286 124.391 79.9297 125.398 79.9453 127.414V133H78.5V127.406C78.4948 126.797 78.3542 126.346 78.0781 126.055C77.8073 125.763 77.3828 125.617 76.8047 125.617C76.3359 125.617 75.9245 125.742 75.5703 125.992C75.2161 126.242 74.9401 126.57 74.7422 126.977V133H73.2969V124.547H74.6641ZM35.1562 148.391C35.0156 149.594 34.5703 150.523 33.8203 151.18C33.0755 151.831 32.0833 152.156 30.8438 152.156C29.5 152.156 28.4219 151.674 27.6094 150.711C26.8021 149.747 26.3984 148.458 26.3984 146.844V145.75C26.3984 144.693 26.5859 143.763 26.9609 142.961C27.3411 142.159 27.8776 141.544 28.5703 141.117C29.263 140.685 30.0651 140.469 30.9766 140.469C32.1849 140.469 33.1536 140.807 33.8828 141.484C34.612 142.156 35.0365 143.089 35.1562 144.281H33.6484C33.5182 143.375 33.2344 142.719 32.7969 142.312C32.3646 141.906 31.7578 141.703 30.9766 141.703C30.0182 141.703 29.2656 142.057 28.7188 142.766C28.1771 143.474 27.9062 144.482 27.9062 145.789V146.891C27.9062 148.125 28.1641 149.107 28.6797 149.836C29.1953 150.565 29.9167 150.93 30.8438 150.93C31.6771 150.93 32.3151 150.742 32.7578 150.367C33.2057 149.987 33.5026 149.328 33.6484 148.391H35.1562ZM38.5547 152H37.1094V140H38.5547V152ZM42.4453 152H40.9922V143.547H42.4453V152ZM42.4609 140.008H44.2109L42.1172 142.305H40.9531L42.4609 140.008ZM46.1953 143.547L46.2422 144.609C46.888 143.797 47.7318 143.391 48.7734 143.391C50.5599 143.391 51.4609 144.398 51.4766 146.414V152H50.0312V146.406C50.026 145.797 49.8854 145.346 49.6094 145.055C49.3385 144.763 48.9141 144.617 48.3359 144.617C47.8672 144.617 47.4557 144.742 47.1016 144.992C46.7474 145.242 46.4714 145.57 46.2734 145.977V152H44.8281V143.547H46.1953ZM55.2266 152H53.7812V143.547H55.2266V152ZM53.6641 141.305C53.6641 141.07 53.7344 140.872 53.875 140.711C54.0208 140.549 54.2344 140.469 54.5156 140.469C54.7969 140.469 55.0104 140.549 55.1562 140.711C55.3021 140.872 55.375 141.07 55.375 141.305C55.375 141.539 55.3021 141.734 55.1562 141.891C55.0104 142.047 54.7969 142.125 54.5156 142.125C54.2344 142.125 54.0208 142.047 53.875 141.891C53.7344 141.734 53.6641 141.539 53.6641 141.305ZM60.9375 150.977C61.4531 150.977 61.9036 150.82 62.2891 150.508C62.6745 150.195 62.888 149.805 62.9297 149.336H64.2969C64.2708 149.82 64.1042 150.281 63.7969 150.719C63.4896 151.156 63.0781 151.505 62.5625 151.766C62.0521 152.026 61.5104 152.156 60.9375 152.156C59.7865 152.156 58.8698 151.773 58.1875 151.008C57.5104 150.237 57.1719 149.185 57.1719 147.852V147.609C57.1719 146.786 57.3229 146.055 57.625 145.414C57.9271 144.773 58.3594 144.276 58.9219 143.922C59.4896 143.568 60.1589 143.391 60.9297 143.391C61.8776 143.391 62.6641 143.674 63.2891 144.242C63.9193 144.81 64.2552 145.547 64.2969 146.453H62.9297C62.888 145.906 62.6797 145.458 62.3047 145.109C61.9349 144.755 61.4766 144.578 60.9297 144.578C60.1953 144.578 59.625 144.844 59.2188 145.375C58.8177 145.901 58.6172 146.664 58.6172 147.664V147.938C58.6172 148.911 58.8177 149.661 59.2188 150.188C59.6198 150.714 60.1927 150.977 60.9375 150.977ZM71.1406 152C71.0573 151.833 70.9896 151.536 70.9375 151.109C70.2656 151.807 69.4635 152.156 68.5312 152.156C67.6979 152.156 67.013 151.922 66.4766 151.453C65.9453 150.979 65.6797 150.38 65.6797 149.656C65.6797 148.776 66.013 148.094 66.6797 147.609C67.3516 147.12 68.2943 146.875 69.5078 146.875H70.9141V146.211C70.9141 145.706 70.763 145.305 70.4609 145.008C70.1589 144.706 69.7135 144.555 69.125 144.555C68.6094 144.555 68.1771 144.685 67.8281 144.945C67.4792 145.206 67.3047 145.521 67.3047 145.891H65.8516C65.8516 145.469 66 145.062 66.2969 144.672C66.599 144.276 67.0052 143.964 67.5156 143.734C68.0312 143.505 68.5964 143.391 69.2109 143.391C70.1849 143.391 70.9479 143.635 71.5 144.125C72.0521 144.609 72.3385 145.279 72.3594 146.133V150.023C72.3594 150.799 72.4583 151.417 72.6562 151.875V152H71.1406ZM68.7422 150.898C69.1953 150.898 69.625 150.781 70.0312 150.547C70.4375 150.312 70.7318 150.008 70.9141 149.633V147.898H69.7812C68.0104 147.898 67.125 148.417 67.125 149.453C67.125 149.906 67.276 150.26 67.5781 150.516C67.8802 150.771 68.2682 150.898 68.7422 150.898Z" fill="#007B8E"/>
<rect x="99" y="103" width="99" height="68" fill="white"/>
<path d="M134.289 142H132.836V132.367L129.922 133.438V132.125L134.062 130.57H134.289V142ZM144.625 138.18H146.203V139.359H144.625V142H143.172V139.359H137.992V138.508L143.086 130.625H144.625V138.18ZM139.633 138.18H143.172V132.602L143 132.914L139.633 138.18ZM147.609 141.242C147.609 140.992 147.682 140.784 147.828 140.617C147.979 140.451 148.203 140.367 148.5 140.367C148.797 140.367 149.021 140.451 149.172 140.617C149.328 140.784 149.406 140.992 149.406 141.242C149.406 141.482 149.328 141.682 149.172 141.844C149.021 142.005 148.797 142.086 148.5 142.086C148.203 142.086 147.979 142.005 147.828 141.844C147.682 141.682 147.609 141.482 147.609 141.242ZM147.617 134.344C147.617 134.094 147.69 133.885 147.836 133.719C147.987 133.552 148.211 133.469 148.508 133.469C148.805 133.469 149.029 133.552 149.18 133.719C149.336 133.885 149.414 134.094 149.414 134.344C149.414 134.583 149.336 134.784 149.18 134.945C149.029 135.107 148.805 135.188 148.508 135.188C148.211 135.188 147.987 135.107 147.836 134.945C147.69 134.784 147.617 134.583 147.617 134.344ZM158.516 137.148C158.516 138.841 158.227 140.099 157.648 140.922C157.07 141.745 156.167 142.156 154.938 142.156C153.724 142.156 152.826 141.755 152.242 140.953C151.659 140.146 151.357 138.943 151.336 137.344V135.414C151.336 133.742 151.625 132.5 152.203 131.688C152.781 130.875 153.688 130.469 154.922 130.469C156.146 130.469 157.047 130.862 157.625 131.648C158.203 132.43 158.5 133.638 158.516 135.273V137.148ZM157.07 135.172C157.07 133.948 156.898 133.057 156.555 132.5C156.211 131.938 155.667 131.656 154.922 131.656C154.182 131.656 153.643 131.935 153.305 132.492C152.966 133.049 152.792 133.906 152.781 135.062V137.375C152.781 138.604 152.958 139.513 153.312 140.102C153.672 140.685 154.214 140.977 154.938 140.977C155.651 140.977 156.18 140.701 156.523 140.148C156.872 139.596 157.055 138.727 157.07 137.539V135.172ZM167.5 137.148C167.5 138.841 167.211 140.099 166.633 140.922C166.055 141.745 165.151 142.156 163.922 142.156C162.708 142.156 161.81 141.755 161.227 140.953C160.643 140.146 160.341 138.943 160.32 137.344V135.414C160.32 133.742 160.609 132.5 161.188 131.688C161.766 130.875 162.672 130.469 163.906 130.469C165.13 130.469 166.031 130.862 166.609 131.648C167.188 132.43 167.484 133.638 167.5 135.273V137.148ZM166.055 135.172C166.055 133.948 165.883 133.057 165.539 132.5C165.195 131.938 164.651 131.656 163.906 131.656C163.167 131.656 162.628 131.935 162.289 132.492C161.951 133.049 161.776 133.906 161.766 135.062V137.375C161.766 138.604 161.943 139.513 162.297 140.102C162.656 140.685 163.198 140.977 163.922 140.977C164.635 140.977 165.164 140.701 165.508 140.148C165.857 139.596 166.039 138.727 166.055 137.539V135.172Z" fill="#007B8E"/>
<rect x="198" y="103" width="99" height="68" fill="white"/>
<path d="M226.609 140.008L229.859 130.625H231.5L227.281 142H225.953L221.742 130.625H223.375L226.609 140.008ZM234.375 142H232.93V133.547H234.375V142ZM232.812 131.305C232.812 131.07 232.883 130.872 233.023 130.711C233.169 130.549 233.383 130.469 233.664 130.469C233.945 130.469 234.159 130.549 234.305 130.711C234.451 130.872 234.523 131.07 234.523 131.305C234.523 131.539 234.451 131.734 234.305 131.891C234.159 132.047 233.945 132.125 233.664 132.125C233.383 132.125 233.169 132.047 233.023 131.891C232.883 131.734 232.812 131.539 232.812 131.305ZM239.484 140.039L241.578 133.547H243.055L240.023 142H238.922L235.859 133.547H237.336L239.484 140.039ZM246.016 142H244.57V133.547H246.016V142ZM244.453 131.305C244.453 131.07 244.523 130.872 244.664 130.711C244.81 130.549 245.023 130.469 245.305 130.469C245.586 130.469 245.799 130.549 245.945 130.711C246.091 130.872 246.164 131.07 246.164 131.305C246.164 131.539 246.091 131.734 245.945 131.891C245.799 132.047 245.586 132.125 245.305 132.125C245.023 132.125 244.81 132.047 244.664 131.891C244.523 131.734 244.453 131.539 244.453 131.305ZM253.555 142C253.471 141.833 253.404 141.536 253.352 141.109C252.68 141.807 251.878 142.156 250.945 142.156C250.112 142.156 249.427 141.922 248.891 141.453C248.359 140.979 248.094 140.38 248.094 139.656C248.094 138.776 248.427 138.094 249.094 137.609C249.766 137.12 250.708 136.875 251.922 136.875H253.328V136.211C253.328 135.706 253.177 135.305 252.875 135.008C252.573 134.706 252.128 134.555 251.539 134.555C251.023 134.555 250.591 134.685 250.242 134.945C249.893 135.206 249.719 135.521 249.719 135.891H248.266C248.266 135.469 248.414 135.062 248.711 134.672C249.013 134.276 249.419 133.964 249.93 133.734C250.445 133.505 251.01 133.391 251.625 133.391C252.599 133.391 253.362 133.635 253.914 134.125C254.466 134.609 254.753 135.279 254.773 136.133V140.023C254.773 140.799 254.872 141.417 255.07 141.875V142H253.555ZM251.156 140.898C251.609 140.898 252.039 140.781 252.445 140.547C252.852 140.312 253.146 140.008 253.328 139.633V137.898H252.195C250.424 137.898 249.539 138.417 249.539 139.453C249.539 139.906 249.69 140.26 249.992 140.516C250.294 140.771 250.682 140.898 251.156 140.898ZM258.406 133.547L258.453 134.609C259.099 133.797 259.943 133.391 260.984 133.391C262.771 133.391 263.672 134.398 263.688 136.414V142H262.242V136.406C262.237 135.797 262.096 135.346 261.82 135.055C261.549 134.763 261.125 134.617 260.547 134.617C260.078 134.617 259.667 134.742 259.312 134.992C258.958 135.242 258.682 135.57 258.484 135.977V142H257.039V133.547H258.406ZM271.086 142C271.003 141.833 270.935 141.536 270.883 141.109C270.211 141.807 269.409 142.156 268.477 142.156C267.643 142.156 266.958 141.922 266.422 141.453C265.891 140.979 265.625 140.38 265.625 139.656C265.625 138.776 265.958 138.094 266.625 137.609C267.297 137.12 268.24 136.875 269.453 136.875H270.859V136.211C270.859 135.706 270.708 135.305 270.406 135.008C270.104 134.706 269.659 134.555 269.07 134.555C268.555 134.555 268.122 134.685 267.773 134.945C267.424 135.206 267.25 135.521 267.25 135.891H265.797C265.797 135.469 265.945 135.062 266.242 134.672C266.544 134.276 266.951 133.964 267.461 133.734C267.977 133.505 268.542 133.391 269.156 133.391C270.13 133.391 270.893 133.635 271.445 134.125C271.997 134.609 272.284 135.279 272.305 136.133V140.023C272.305 140.799 272.404 141.417 272.602 141.875V142H271.086ZM268.688 140.898C269.141 140.898 269.57 140.781 269.977 140.547C270.383 140.312 270.677 140.008 270.859 139.633V137.898H269.727C267.956 137.898 267.07 138.417 267.07 139.453C267.07 139.906 267.221 140.26 267.523 140.516C267.826 140.771 268.214 140.898 268.688 140.898Z" fill="#007B8E"/>
<rect x="297" y="103" width="99" height="68" fill="white"/>
<path d="M332.32 136.977H327.547V142H326.047V130.625H333.094V131.859H327.547V135.75H332.32V136.977ZM339.617 142C339.534 141.833 339.466 141.536 339.414 141.109C338.742 141.807 337.94 142.156 337.008 142.156C336.174 142.156 335.49 141.922 334.953 141.453C334.422 140.979 334.156 140.38 334.156 139.656C334.156 138.776 334.49 138.094 335.156 137.609C335.828 137.12 336.771 136.875 337.984 136.875H339.391V136.211C339.391 135.706 339.24 135.305 338.938 135.008C338.635 134.706 338.19 134.555 337.602 134.555C337.086 134.555 336.654 134.685 336.305 134.945C335.956 135.206 335.781 135.521 335.781 135.891H334.328C334.328 135.469 334.477 135.062 334.773 134.672C335.076 134.276 335.482 133.964 335.992 133.734C336.508 133.505 337.073 133.391 337.688 133.391C338.661 133.391 339.424 133.635 339.977 134.125C340.529 134.609 340.815 135.279 340.836 136.133V140.023C340.836 140.799 340.935 141.417 341.133 141.875V142H339.617ZM337.219 140.898C337.672 140.898 338.102 140.781 338.508 140.547C338.914 140.312 339.208 140.008 339.391 139.633V137.898H338.258C336.487 137.898 335.602 138.417 335.602 139.453C335.602 139.906 335.753 140.26 336.055 140.516C336.357 140.771 336.745 140.898 337.219 140.898ZM347.188 134.844C346.969 134.807 346.732 134.789 346.477 134.789C345.529 134.789 344.885 135.193 344.547 136V142H343.102V133.547H344.508L344.531 134.523C345.005 133.768 345.677 133.391 346.547 133.391C346.828 133.391 347.042 133.427 347.188 133.5V134.844ZM350.094 142H348.648V133.547H350.094V142ZM348.531 131.305C348.531 131.07 348.602 130.872 348.742 130.711C348.888 130.549 349.102 130.469 349.383 130.469C349.664 130.469 349.878 130.549 350.023 130.711C350.169 130.872 350.242 131.07 350.242 131.305C350.242 131.539 350.169 131.734 350.023 131.891C349.878 132.047 349.664 132.125 349.383 132.125C349.102 132.125 348.888 132.047 348.742 131.891C348.602 131.734 348.531 131.539 348.531 131.305ZM357.633 142C357.549 141.833 357.482 141.536 357.43 141.109C356.758 141.807 355.956 142.156 355.023 142.156C354.19 142.156 353.505 141.922 352.969 141.453C352.438 140.979 352.172 140.38 352.172 139.656C352.172 138.776 352.505 138.094 353.172 137.609C353.844 137.12 354.786 136.875 356 136.875H357.406V136.211C357.406 135.706 357.255 135.305 356.953 135.008C356.651 134.706 356.206 134.555 355.617 134.555C355.102 134.555 354.669 134.685 354.32 134.945C353.971 135.206 353.797 135.521 353.797 135.891H352.344C352.344 135.469 352.492 135.062 352.789 134.672C353.091 134.276 353.497 133.964 354.008 133.734C354.523 133.505 355.089 133.391 355.703 133.391C356.677 133.391 357.44 133.635 357.992 134.125C358.544 134.609 358.831 135.279 358.852 136.133V140.023C358.852 140.799 358.951 141.417 359.148 141.875V142H357.633ZM355.234 140.898C355.688 140.898 356.117 140.781 356.523 140.547C356.93 140.312 357.224 140.008 357.406 139.633V137.898H356.273C354.503 137.898 353.617 138.417 353.617 139.453C353.617 139.906 353.768 140.26 354.07 140.516C354.372 140.771 354.76 140.898 355.234 140.898ZM366.039 139.758C366.039 139.367 365.891 139.065 365.594 138.852C365.302 138.633 364.789 138.445 364.055 138.289C363.326 138.133 362.745 137.945 362.312 137.727C361.885 137.508 361.568 137.247 361.359 136.945C361.156 136.643 361.055 136.284 361.055 135.867C361.055 135.174 361.346 134.589 361.93 134.109C362.518 133.63 363.268 133.391 364.18 133.391C365.138 133.391 365.914 133.638 366.508 134.133C367.107 134.628 367.406 135.26 367.406 136.031H365.953C365.953 135.635 365.784 135.294 365.445 135.008C365.112 134.721 364.69 134.578 364.18 134.578C363.654 134.578 363.242 134.693 362.945 134.922C362.648 135.151 362.5 135.451 362.5 135.82C362.5 136.169 362.638 136.432 362.914 136.609C363.19 136.786 363.688 136.956 364.406 137.117C365.13 137.279 365.716 137.471 366.164 137.695C366.612 137.919 366.943 138.19 367.156 138.508C367.375 138.82 367.484 139.203 367.484 139.656C367.484 140.411 367.182 141.018 366.578 141.477C365.974 141.93 365.19 142.156 364.227 142.156C363.549 142.156 362.951 142.036 362.43 141.797C361.909 141.557 361.5 141.224 361.203 140.797C360.911 140.365 360.766 139.898 360.766 139.398H362.211C362.237 139.883 362.43 140.268 362.789 140.555C363.154 140.836 363.633 140.977 364.227 140.977C364.773 140.977 365.211 140.867 365.539 140.648C365.872 140.424 366.039 140.128 366.039 139.758Z" fill="#007B8E"/>
<rect x="396" y="103" width="99" height="68" fill="white"/>
<path d="M413.609 128.398H410.938V133H409.43V121.625H413.195C414.477 121.625 415.461 121.917 416.148 122.5C416.841 123.083 417.188 123.932 417.188 125.047C417.188 125.755 416.995 126.372 416.609 126.898C416.229 127.424 415.698 127.818 415.016 128.078L417.688 132.906V133H416.078L413.609 128.398ZM410.938 127.172H413.242C413.987 127.172 414.578 126.979 415.016 126.594C415.458 126.208 415.68 125.693 415.68 125.047C415.68 124.344 415.469 123.805 415.047 123.43C414.63 123.055 414.026 122.865 413.234 122.859H410.938V127.172ZM418.688 128.695C418.688 127.867 418.849 127.122 419.172 126.461C419.5 125.799 419.953 125.289 420.531 124.93C421.115 124.57 421.779 124.391 422.523 124.391C423.674 124.391 424.604 124.789 425.312 125.586C426.026 126.383 426.383 127.443 426.383 128.766V128.867C426.383 129.69 426.224 130.43 425.906 131.086C425.594 131.737 425.143 132.245 424.555 132.609C423.971 132.974 423.299 133.156 422.539 133.156C421.393 133.156 420.464 132.758 419.75 131.961C419.042 131.164 418.688 130.109 418.688 128.797V128.695ZM420.141 128.867C420.141 129.805 420.357 130.557 420.789 131.125C421.227 131.693 421.81 131.977 422.539 131.977C423.273 131.977 423.857 131.69 424.289 131.117C424.721 130.539 424.938 129.732 424.938 128.695C424.938 127.768 424.716 127.018 424.273 126.445C423.836 125.867 423.253 125.578 422.523 125.578C421.81 125.578 421.234 125.862 420.797 126.43C420.359 126.997 420.141 127.81 420.141 128.867ZM427.844 128.703C427.844 127.406 428.151 126.365 428.766 125.578C429.38 124.786 430.185 124.391 431.18 124.391C432.169 124.391 432.953 124.729 433.531 125.406V121H434.977V133H433.648L433.578 132.094C433 132.802 432.195 133.156 431.164 133.156C430.185 133.156 429.385 132.755 428.766 131.953C428.151 131.151 427.844 130.104 427.844 128.812V128.703ZM429.289 128.867C429.289 129.826 429.487 130.576 429.883 131.117C430.279 131.659 430.826 131.93 431.523 131.93C432.44 131.93 433.109 131.518 433.531 130.695V126.812C433.099 126.016 432.435 125.617 431.539 125.617C430.831 125.617 430.279 125.891 429.883 126.438C429.487 126.984 429.289 127.794 429.289 128.867ZM441.312 125.844C441.094 125.807 440.857 125.789 440.602 125.789C439.654 125.789 439.01 126.193 438.672 127V133H437.227V124.547H438.633L438.656 125.523C439.13 124.768 439.802 124.391 440.672 124.391C440.953 124.391 441.167 124.427 441.312 124.5V125.844ZM444.219 133H442.766V124.547H444.219V133ZM444.234 121.008H445.984L443.891 123.305H442.727L444.234 121.008ZM446.258 128.703C446.258 127.385 446.562 126.339 447.172 125.562C447.781 124.781 448.589 124.391 449.594 124.391C450.625 124.391 451.43 124.755 452.008 125.484L452.078 124.547H453.398V132.797C453.398 133.891 453.073 134.753 452.422 135.383C451.776 136.013 450.906 136.328 449.812 136.328C449.203 136.328 448.607 136.198 448.023 135.938C447.44 135.677 446.995 135.32 446.688 134.867L447.438 134C448.057 134.766 448.815 135.148 449.711 135.148C450.414 135.148 450.961 134.951 451.352 134.555C451.747 134.159 451.945 133.602 451.945 132.883V132.156C451.367 132.823 450.578 133.156 449.578 133.156C448.589 133.156 447.786 132.758 447.172 131.961C446.562 131.164 446.258 130.078 446.258 128.703ZM447.711 128.867C447.711 129.82 447.906 130.57 448.297 131.117C448.688 131.659 449.234 131.93 449.938 131.93C450.849 131.93 451.518 131.516 451.945 130.688V126.828C451.503 126.021 450.839 125.617 449.953 125.617C449.25 125.617 448.701 125.891 448.305 126.438C447.909 126.984 447.711 127.794 447.711 128.867ZM460.805 132.164C460.242 132.826 459.417 133.156 458.328 133.156C457.427 133.156 456.74 132.896 456.266 132.375C455.797 131.849 455.56 131.073 455.555 130.047V124.547H457V130.008C457 131.289 457.521 131.93 458.562 131.93C459.667 131.93 460.401 131.518 460.766 130.695V124.547H462.211V133H460.836L460.805 132.164ZM467.922 133.156C466.776 133.156 465.844 132.781 465.125 132.031C464.406 131.276 464.047 130.268 464.047 129.008V128.742C464.047 127.904 464.206 127.156 464.523 126.5C464.846 125.839 465.294 125.323 465.867 124.953C466.445 124.578 467.07 124.391 467.742 124.391C468.841 124.391 469.695 124.753 470.305 125.477C470.914 126.201 471.219 127.237 471.219 128.586V129.188H465.492C465.513 130.021 465.755 130.695 466.219 131.211C466.688 131.721 467.281 131.977 468 131.977C468.51 131.977 468.943 131.872 469.297 131.664C469.651 131.456 469.961 131.18 470.227 130.836L471.109 131.523C470.401 132.612 469.339 133.156 467.922 133.156ZM467.742 125.578C467.159 125.578 466.669 125.792 466.273 126.219C465.878 126.641 465.633 127.234 465.539 128H469.773V127.891C469.732 127.156 469.534 126.589 469.18 126.188C468.826 125.781 468.346 125.578 467.742 125.578ZM474.258 131.82H479.203V133H472.492V131.938L477.156 125.742H472.562V124.547H478.969V125.57L474.258 131.82ZM480.789 135.266L479.969 134.703C480.458 134.021 480.714 133.318 480.734 132.594V131.289H482.148V132.422C482.148 132.948 482.018 133.474 481.758 134C481.503 134.526 481.18 134.948 480.789 135.266ZM419.305 149.031H414.539L413.469 152H411.922L416.266 140.625H417.578L421.93 152H420.391L419.305 149.031ZM414.992 147.797H418.859L416.922 142.477L414.992 147.797ZM424.805 152H423.359V140H424.805V152ZM430.633 152.156C429.487 152.156 428.555 151.781 427.836 151.031C427.117 150.276 426.758 149.268 426.758 148.008V147.742C426.758 146.904 426.917 146.156 427.234 145.5C427.557 144.839 428.005 144.323 428.578 143.953C429.156 143.578 429.781 143.391 430.453 143.391C431.552 143.391 432.406 143.753 433.016 144.477C433.625 145.201 433.93 146.237 433.93 147.586V148.188H428.203C428.224 149.021 428.466 149.695 428.93 150.211C429.398 150.721 429.992 150.977 430.711 150.977C431.221 150.977 431.654 150.872 432.008 150.664C432.362 150.456 432.672 150.18 432.938 149.836L433.82 150.523C433.112 151.612 432.049 152.156 430.633 152.156ZM430.453 144.578C429.87 144.578 429.38 144.792 428.984 145.219C428.589 145.641 428.344 146.234 428.25 147H432.484V146.891C432.443 146.156 432.245 145.589 431.891 145.188C431.536 144.781 431.057 144.578 430.453 144.578ZM437.102 143.547V152.977C437.102 154.602 436.365 155.414 434.891 155.414C434.573 155.414 434.279 155.367 434.008 155.273V154.117C434.174 154.159 434.393 154.18 434.664 154.18C434.987 154.18 435.232 154.091 435.398 153.914C435.57 153.742 435.656 153.44 435.656 153.008V143.547H437.102ZM435.508 141.305C435.508 141.076 435.578 140.88 435.719 140.719C435.865 140.552 436.076 140.469 436.352 140.469C436.633 140.469 436.846 140.549 436.992 140.711C437.138 140.872 437.211 141.07 437.211 141.305C437.211 141.539 437.138 141.734 436.992 141.891C436.846 142.047 436.633 142.125 436.352 142.125C436.07 142.125 435.859 142.047 435.719 141.891C435.578 141.734 435.508 141.539 435.508 141.305ZM444.656 152C444.573 151.833 444.505 151.536 444.453 151.109C443.781 151.807 442.979 152.156 442.047 152.156C441.214 152.156 440.529 151.922 439.992 151.453C439.461 150.979 439.195 150.38 439.195 149.656C439.195 148.776 439.529 148.094 440.195 147.609C440.867 147.12 441.81 146.875 443.023 146.875H444.43V146.211C444.43 145.706 444.279 145.305 443.977 145.008C443.674 144.706 443.229 144.555 442.641 144.555C442.125 144.555 441.693 144.685 441.344 144.945C440.995 145.206 440.82 145.521 440.82 145.891H439.367C439.367 145.469 439.516 145.062 439.812 144.672C440.115 144.276 440.521 143.964 441.031 143.734C441.547 143.505 442.112 143.391 442.727 143.391C443.701 143.391 444.464 143.635 445.016 144.125C445.568 144.609 445.854 145.279 445.875 146.133V150.023C445.875 150.799 445.974 151.417 446.172 151.875V152H444.656ZM442.258 150.898C442.711 150.898 443.141 150.781 443.547 150.547C443.953 150.312 444.247 150.008 444.43 149.633V147.898H443.297C441.526 147.898 440.641 148.417 440.641 149.453C440.641 149.906 440.792 150.26 441.094 150.516C441.396 150.771 441.784 150.898 442.258 150.898ZM449.508 143.547L449.555 144.609C450.201 143.797 451.044 143.391 452.086 143.391C453.872 143.391 454.773 144.398 454.789 146.414V152H453.344V146.406C453.339 145.797 453.198 145.346 452.922 145.055C452.651 144.763 452.227 144.617 451.648 144.617C451.18 144.617 450.768 144.742 450.414 144.992C450.06 145.242 449.784 145.57 449.586 145.977V152H448.141V143.547H449.508ZM456.617 147.703C456.617 146.406 456.924 145.365 457.539 144.578C458.154 143.786 458.958 143.391 459.953 143.391C460.943 143.391 461.727 143.729 462.305 144.406V140H463.75V152H462.422L462.352 151.094C461.773 151.802 460.969 152.156 459.938 152.156C458.958 152.156 458.159 151.755 457.539 150.953C456.924 150.151 456.617 149.104 456.617 147.812V147.703ZM458.062 147.867C458.062 148.826 458.26 149.576 458.656 150.117C459.052 150.659 459.599 150.93 460.297 150.93C461.214 150.93 461.883 150.518 462.305 149.695V145.812C461.872 145.016 461.208 144.617 460.312 144.617C459.604 144.617 459.052 144.891 458.656 145.438C458.26 145.984 458.062 146.794 458.062 147.867ZM470.086 144.844C469.867 144.807 469.63 144.789 469.375 144.789C468.427 144.789 467.784 145.193 467.445 146V152H466V143.547H467.406L467.43 144.523C467.904 143.768 468.576 143.391 469.445 143.391C469.727 143.391 469.94 143.427 470.086 143.5V144.844ZM470.883 147.695C470.883 146.867 471.044 146.122 471.367 145.461C471.695 144.799 472.148 144.289 472.727 143.93C473.31 143.57 473.974 143.391 474.719 143.391C475.87 143.391 476.799 143.789 477.508 144.586C478.221 145.383 478.578 146.443 478.578 147.766V147.867C478.578 148.69 478.419 149.43 478.102 150.086C477.789 150.737 477.339 151.245 476.75 151.609C476.167 151.974 475.495 152.156 474.734 152.156C473.589 152.156 472.659 151.758 471.945 150.961C471.237 150.164 470.883 149.109 470.883 147.797V147.695ZM472.336 147.867C472.336 148.805 472.552 149.557 472.984 150.125C473.422 150.693 474.005 150.977 474.734 150.977C475.469 150.977 476.052 150.69 476.484 150.117C476.917 149.539 477.133 148.732 477.133 147.695C477.133 146.768 476.911 146.018 476.469 145.445C476.031 144.867 475.448 144.578 474.719 144.578C474.005 144.578 473.43 144.862 472.992 145.43C472.555 145.997 472.336 146.81 472.336 147.867Z" fill="#007B8E"/>
<rect x="99" width="99" height="37" fill="#007B8E"/>
<path d="M132.172 24H130.664V18.7422H124.93V24H123.43V12.625H124.93V17.5156H130.664V12.625H132.172V24ZM134.227 19.6953C134.227 18.8672 134.388 18.1224 134.711 17.4609C135.039 16.7995 135.492 16.2891 136.07 15.9297C136.654 15.5703 137.318 15.3906 138.062 15.3906C139.214 15.3906 140.143 15.7891 140.852 16.5859C141.565 17.3828 141.922 18.4427 141.922 19.7656V19.8672C141.922 20.6901 141.763 21.4297 141.445 22.0859C141.133 22.737 140.682 23.2448 140.094 23.6094C139.51 23.974 138.839 24.1562 138.078 24.1562C136.932 24.1562 136.003 23.7578 135.289 22.9609C134.581 22.1641 134.227 21.1094 134.227 19.7969V19.6953ZM135.68 19.8672C135.68 20.8047 135.896 21.5573 136.328 22.125C136.766 22.6927 137.349 22.9766 138.078 22.9766C138.812 22.9766 139.396 22.6901 139.828 22.1172C140.26 21.5391 140.477 20.7318 140.477 19.6953C140.477 18.7682 140.255 18.0182 139.812 17.4453C139.375 16.8672 138.792 16.5781 138.062 16.5781C137.349 16.5781 136.773 16.862 136.336 17.4297C135.898 17.9974 135.68 18.8099 135.68 19.8672ZM147.82 16.8438C147.602 16.8073 147.365 16.7891 147.109 16.7891C146.161 16.7891 145.518 17.1927 145.18 18V24H143.734V15.5469H145.141L145.164 16.5234C145.638 15.7682 146.31 15.3906 147.18 15.3906C147.461 15.3906 147.674 15.4271 147.82 15.5V16.8438ZM154.062 24C153.979 23.8333 153.911 23.5365 153.859 23.1094C153.188 23.8073 152.385 24.1562 151.453 24.1562C150.62 24.1562 149.935 23.9219 149.398 23.4531C148.867 22.9792 148.602 22.3802 148.602 21.6562C148.602 20.776 148.935 20.0938 149.602 19.6094C150.273 19.1198 151.216 18.875 152.43 18.875H153.836V18.2109C153.836 17.7057 153.685 17.3047 153.383 17.0078C153.081 16.7057 152.635 16.5547 152.047 16.5547C151.531 16.5547 151.099 16.6849 150.75 16.9453C150.401 17.2057 150.227 17.5208 150.227 17.8906H148.773C148.773 17.4688 148.922 17.0625 149.219 16.6719C149.521 16.276 149.927 15.9635 150.438 15.7344C150.953 15.5052 151.518 15.3906 152.133 15.3906C153.107 15.3906 153.87 15.6354 154.422 16.125C154.974 16.6094 155.26 17.2786 155.281 18.1328V22.0234C155.281 22.7995 155.38 23.4167 155.578 23.875V24H154.062ZM151.664 22.8984C152.117 22.8984 152.547 22.7812 152.953 22.5469C153.359 22.3125 153.654 22.0078 153.836 21.6328V19.8984H152.703C150.932 19.8984 150.047 20.4167 150.047 21.4531C150.047 21.9062 150.198 22.2604 150.5 22.5156C150.802 22.7708 151.19 22.8984 151.664 22.8984ZM161.633 16.8438C161.414 16.8073 161.177 16.7891 160.922 16.7891C159.974 16.7891 159.331 17.1927 158.992 18V24H157.547V15.5469H158.953L158.977 16.5234C159.451 15.7682 160.122 15.3906 160.992 15.3906C161.273 15.3906 161.487 15.4271 161.633 15.5V16.8438ZM164.539 24H163.094V15.5469H164.539V24ZM162.977 13.3047C162.977 13.0703 163.047 12.8724 163.188 12.7109C163.333 12.5495 163.547 12.4688 163.828 12.4688C164.109 12.4688 164.323 12.5495 164.469 12.7109C164.615 12.8724 164.688 13.0703 164.688 13.3047C164.688 13.5391 164.615 13.7344 164.469 13.8906C164.323 14.0469 164.109 14.125 163.828 14.125C163.547 14.125 163.333 14.0469 163.188 13.8906C163.047 13.7344 162.977 13.5391 162.977 13.3047ZM166.477 19.6953C166.477 18.8672 166.638 18.1224 166.961 17.4609C167.289 16.7995 167.742 16.2891 168.32 15.9297C168.904 15.5703 169.568 15.3906 170.312 15.3906C171.464 15.3906 172.393 15.7891 173.102 16.5859C173.815 17.3828 174.172 18.4427 174.172 19.7656V19.8672C174.172 20.6901 174.013 21.4297 173.695 22.0859C173.383 22.737 172.932 23.2448 172.344 23.6094C171.76 23.974 171.089 24.1562 170.328 24.1562C169.182 24.1562 168.253 23.7578 167.539 22.9609C166.831 22.1641 166.477 21.1094 166.477 19.7969V19.6953ZM167.93 19.8672C167.93 20.8047 168.146 21.5573 168.578 22.125C169.016 22.6927 169.599 22.9766 170.328 22.9766C171.062 22.9766 171.646 22.6901 172.078 22.1172C172.51 21.5391 172.727 20.7318 172.727 19.6953C172.727 18.7682 172.505 18.0182 172.062 17.4453C171.625 16.8672 171.042 16.5781 170.312 16.5781C169.599 16.5781 169.023 16.862 168.586 17.4297C168.148 17.9974 167.93 18.8099 167.93 19.8672Z" fill="white"/>
<rect x="198" width="99" height="37" fill="#007B8E"/>
<path d="M228.914 24H227.406L221.68 15.2344V24H220.172V12.625H221.68L227.422 21.4297V12.625H228.914V24ZM230.969 19.6953C230.969 18.8672 231.13 18.1224 231.453 17.4609C231.781 16.7995 232.234 16.2891 232.812 15.9297C233.396 15.5703 234.06 15.3906 234.805 15.3906C235.956 15.3906 236.885 15.7891 237.594 16.5859C238.307 17.3828 238.664 18.4427 238.664 19.7656V19.8672C238.664 20.6901 238.505 21.4297 238.188 22.0859C237.875 22.737 237.424 23.2448 236.836 23.6094C236.253 23.974 235.581 24.1562 234.82 24.1562C233.674 24.1562 232.745 23.7578 232.031 22.9609C231.323 22.1641 230.969 21.1094 230.969 19.7969V19.6953ZM232.422 19.8672C232.422 20.8047 232.638 21.5573 233.07 22.125C233.508 22.6927 234.091 22.9766 234.82 22.9766C235.555 22.9766 236.138 22.6901 236.57 22.1172C237.003 21.5391 237.219 20.7318 237.219 19.6953C237.219 18.7682 236.997 18.0182 236.555 17.4453C236.117 16.8672 235.534 16.5781 234.805 16.5781C234.091 16.5781 233.516 16.862 233.078 17.4297C232.641 17.9974 232.422 18.8099 232.422 19.8672ZM241.836 15.5469L241.875 16.4844C242.495 15.7552 243.331 15.3906 244.383 15.3906C245.565 15.3906 246.37 15.8438 246.797 16.75C247.078 16.3438 247.443 16.0156 247.891 15.7656C248.344 15.5156 248.878 15.3906 249.492 15.3906C251.346 15.3906 252.289 16.3724 252.32 18.3359V24H250.875V18.4219C250.875 17.8177 250.737 17.3672 250.461 17.0703C250.185 16.7682 249.721 16.6172 249.07 16.6172C248.534 16.6172 248.089 16.7786 247.734 17.1016C247.38 17.4193 247.174 17.849 247.117 18.3906V24H245.664V18.4609C245.664 17.2318 245.062 16.6172 243.859 16.6172C242.911 16.6172 242.263 17.0208 241.914 17.8281V24H240.469V15.5469H241.836ZM261.664 19.8672C261.664 21.1589 261.367 22.1979 260.773 22.9844C260.18 23.7656 259.383 24.1562 258.383 24.1562C257.315 24.1562 256.49 23.7786 255.906 23.0234L255.836 24H254.508V12H255.953V16.4766C256.536 15.7526 257.341 15.3906 258.367 15.3906C259.393 15.3906 260.198 15.7786 260.781 16.5547C261.37 17.3307 261.664 18.3932 261.664 19.7422V19.8672ZM260.219 19.7031C260.219 18.7188 260.029 17.9583 259.648 17.4219C259.268 16.8854 258.721 16.6172 258.008 16.6172C257.055 16.6172 256.37 17.0599 255.953 17.9453V21.6016C256.396 22.487 257.086 22.9297 258.023 22.9297C258.716 22.9297 259.255 22.6615 259.641 22.125C260.026 21.5885 260.219 20.7812 260.219 19.7031ZM267.578 16.8438C267.359 16.8073 267.122 16.7891 266.867 16.7891C265.919 16.7891 265.276 17.1927 264.938 18V24H263.492V15.5469H264.898L264.922 16.5234C265.396 15.7682 266.068 15.3906 266.938 15.3906C267.219 15.3906 267.432 15.4271 267.578 15.5V16.8438ZM272.266 24.1562C271.12 24.1562 270.188 23.7812 269.469 23.0312C268.75 22.276 268.391 21.2682 268.391 20.0078V19.7422C268.391 18.9036 268.549 18.1562 268.867 17.5C269.19 16.8385 269.638 16.3229 270.211 15.9531C270.789 15.5781 271.414 15.3906 272.086 15.3906C273.185 15.3906 274.039 15.7526 274.648 16.4766C275.258 17.2005 275.562 18.237 275.562 19.5859V20.1875H269.836C269.857 21.0208 270.099 21.6953 270.562 22.2109C271.031 22.7214 271.625 22.9766 272.344 22.9766C272.854 22.9766 273.286 22.8724 273.641 22.6641C273.995 22.4557 274.305 22.1797 274.57 21.8359L275.453 22.5234C274.745 23.612 273.682 24.1562 272.266 24.1562ZM272.086 16.5781C271.503 16.5781 271.013 16.7917 270.617 17.2188C270.221 17.6406 269.977 18.2344 269.883 19H274.117V18.8906C274.076 18.1562 273.878 17.5885 273.523 17.1875C273.169 16.7812 272.69 16.5781 272.086 16.5781Z" fill="white"/>
<rect x="297" width="99" height="37" fill="#007B8E"/>
<path d="M325.234 21.0312H320.469L319.398 24H317.852L322.195 12.625H323.508L327.859 24H326.32L325.234 21.0312ZM320.922 19.7969H324.789L322.852 14.4766L320.922 19.7969ZM336.305 19.8672C336.305 21.1536 336.01 22.1901 335.422 22.9766C334.833 23.763 334.036 24.1562 333.031 24.1562C332.005 24.1562 331.198 23.8307 330.609 23.1797V27.25H329.164V15.5469H330.484L330.555 16.4844C331.143 15.7552 331.961 15.3906 333.008 15.3906C334.023 15.3906 334.826 15.7734 335.414 16.5391C336.008 17.3047 336.305 18.3698 336.305 19.7344V19.8672ZM334.859 19.7031C334.859 18.75 334.656 17.9974 334.25 17.4453C333.844 16.8932 333.286 16.6172 332.578 16.6172C331.703 16.6172 331.047 17.0052 330.609 17.7812V21.8203C331.042 22.5911 331.703 22.9766 332.594 22.9766C333.286 22.9766 333.836 22.7031 334.242 22.1562C334.654 21.6042 334.859 20.7865 334.859 19.7031ZM341.656 24.1562C340.51 24.1562 339.578 23.7812 338.859 23.0312C338.141 22.276 337.781 21.2682 337.781 20.0078V19.7422C337.781 18.9036 337.94 18.1562 338.258 17.5C338.581 16.8385 339.029 16.3229 339.602 15.9531C340.18 15.5781 340.805 15.3906 341.477 15.3906C342.576 15.3906 343.43 15.7526 344.039 16.4766C344.648 17.2005 344.953 18.237 344.953 19.5859V20.1875H339.227C339.247 21.0208 339.49 21.6953 339.953 22.2109C340.422 22.7214 341.016 22.9766 341.734 22.9766C342.245 22.9766 342.677 22.8724 343.031 22.6641C343.385 22.4557 343.695 22.1797 343.961 21.8359L344.844 22.5234C344.135 23.612 343.073 24.1562 341.656 24.1562ZM341.477 16.5781C340.893 16.5781 340.404 16.7917 340.008 17.2188C339.612 17.6406 339.367 18.2344 339.273 19H343.508V18.8906C343.466 18.1562 343.268 17.5885 342.914 17.1875C342.56 16.7812 342.081 16.5781 341.477 16.5781ZM348.203 24H346.758V12H348.203V24ZM352.094 24H350.648V12H352.094V24ZM355.984 24H354.539V15.5469H355.984V24ZM354.422 13.3047C354.422 13.0703 354.492 12.8724 354.633 12.7109C354.779 12.5495 354.992 12.4688 355.273 12.4688C355.555 12.4688 355.768 12.5495 355.914 12.7109C356.06 12.8724 356.133 13.0703 356.133 13.3047C356.133 13.5391 356.06 13.7344 355.914 13.8906C355.768 14.0469 355.555 14.125 355.273 14.125C354.992 14.125 354.779 14.0469 354.633 13.8906C354.492 13.7344 354.422 13.5391 354.422 13.3047ZM357.953 19.7031C357.953 18.4062 358.26 17.3646 358.875 16.5781C359.49 15.7865 360.294 15.3906 361.289 15.3906C362.279 15.3906 363.062 15.7292 363.641 16.4062V12H365.086V24H363.758L363.688 23.0938C363.109 23.8021 362.305 24.1562 361.273 24.1562C360.294 24.1562 359.495 23.7552 358.875 22.9531C358.26 22.151 357.953 21.1042 357.953 19.8125V19.7031ZM359.398 19.8672C359.398 20.8255 359.596 21.5755 359.992 22.1172C360.388 22.6589 360.935 22.9297 361.633 22.9297C362.549 22.9297 363.219 22.5182 363.641 21.6953V17.8125C363.208 17.0156 362.544 16.6172 361.648 16.6172C360.94 16.6172 360.388 16.8906 359.992 17.4375C359.596 17.9844 359.398 18.7943 359.398 19.8672ZM366.953 19.6953C366.953 18.8672 367.115 18.1224 367.438 17.4609C367.766 16.7995 368.219 16.2891 368.797 15.9297C369.38 15.5703 370.044 15.3906 370.789 15.3906C371.94 15.3906 372.87 15.7891 373.578 16.5859C374.292 17.3828 374.648 18.4427 374.648 19.7656V19.8672C374.648 20.6901 374.49 21.4297 374.172 22.0859C373.859 22.737 373.409 23.2448 372.82 23.6094C372.237 23.974 371.565 24.1562 370.805 24.1562C369.659 24.1562 368.729 23.7578 368.016 22.9609C367.307 22.1641 366.953 21.1094 366.953 19.7969V19.6953ZM368.406 19.8672C368.406 20.8047 368.622 21.5573 369.055 22.125C369.492 22.6927 370.076 22.9766 370.805 22.9766C371.539 22.9766 372.122 22.6901 372.555 22.1172C372.987 21.5391 373.203 20.7318 373.203 19.6953C373.203 18.7682 372.982 18.0182 372.539 17.4453C372.102 16.8672 371.518 16.5781 370.789 16.5781C370.076 16.5781 369.5 16.862 369.062 17.4297C368.625 17.9974 368.406 18.8099 368.406 19.8672Z" fill="white"/>
<rect x="396" width="99" height="37" fill="#007B8E"/>
<path d="M407.805 19.5469V24H406.305V12.625H410.5C411.745 12.625 412.719 12.9427 413.422 13.5781C414.13 14.2135 414.484 15.0547 414.484 16.1016C414.484 17.2057 414.138 18.0573 413.445 18.6562C412.758 19.25 411.771 19.5469 410.484 19.5469H407.805ZM407.805 18.3203H410.5C411.302 18.3203 411.917 18.1328 412.344 17.7578C412.771 17.3776 412.984 16.8307 412.984 16.1172C412.984 15.4401 412.771 14.8984 412.344 14.4922C411.917 14.0859 411.331 13.875 410.586 13.8594H407.805V18.3203ZM420.258 16.8438C420.039 16.8073 419.802 16.7891 419.547 16.7891C418.599 16.7891 417.956 17.1927 417.617 18V24H416.172V15.5469H417.578L417.602 16.5234C418.076 15.7682 418.747 15.3906 419.617 15.3906C419.898 15.3906 420.112 15.4271 420.258 15.5V16.8438ZM421.055 19.6953C421.055 18.8672 421.216 18.1224 421.539 17.4609C421.867 16.7995 422.32 16.2891 422.898 15.9297C423.482 15.5703 424.146 15.3906 424.891 15.3906C426.042 15.3906 426.971 15.7891 427.68 16.5859C428.393 17.3828 428.75 18.4427 428.75 19.7656V19.8672C428.75 20.6901 428.591 21.4297 428.273 22.0859C427.961 22.737 427.51 23.2448 426.922 23.6094C426.339 23.974 425.667 24.1562 424.906 24.1562C423.76 24.1562 422.831 23.7578 422.117 22.9609C421.409 22.1641 421.055 21.1094 421.055 19.7969V19.6953ZM422.508 19.8672C422.508 20.8047 422.724 21.5573 423.156 22.125C423.594 22.6927 424.177 22.9766 424.906 22.9766C425.641 22.9766 426.224 22.6901 426.656 22.1172C427.089 21.5391 427.305 20.7318 427.305 19.6953C427.305 18.7682 427.083 18.0182 426.641 17.4453C426.203 16.8672 425.62 16.5781 424.891 16.5781C424.177 16.5781 423.602 16.862 423.164 17.4297C422.727 17.9974 422.508 18.8099 422.508 19.8672ZM431.273 24V16.6641H429.938V15.5469H431.273V14.6797C431.273 13.7734 431.516 13.0729 432 12.5781C432.484 12.0833 433.169 11.8359 434.055 11.8359C434.388 11.8359 434.719 11.8802 435.047 11.9688L434.969 13.1406C434.724 13.0938 434.464 13.0703 434.188 13.0703C433.719 13.0703 433.357 13.2083 433.102 13.4844C432.846 13.7552 432.719 14.1458 432.719 14.6562V15.5469H434.523V16.6641H432.719V24H431.273ZM439.445 24.1562C438.299 24.1562 437.367 23.7812 436.648 23.0312C435.93 22.276 435.57 21.2682 435.57 20.0078V19.7422C435.57 18.9036 435.729 18.1562 436.047 17.5C436.37 16.8385 436.818 16.3229 437.391 15.9531C437.969 15.5781 438.594 15.3906 439.266 15.3906C440.365 15.3906 441.219 15.7526 441.828 16.4766C442.438 17.2005 442.742 18.237 442.742 19.5859V20.1875H437.016C437.036 21.0208 437.279 21.6953 437.742 22.2109C438.211 22.7214 438.805 22.9766 439.523 22.9766C440.034 22.9766 440.466 22.8724 440.82 22.6641C441.174 22.4557 441.484 22.1797 441.75 21.8359L442.633 22.5234C441.924 23.612 440.862 24.1562 439.445 24.1562ZM439.266 16.5781C438.682 16.5781 438.193 16.7917 437.797 17.2188C437.401 17.6406 437.156 18.2344 437.062 19H441.297V18.8906C441.255 18.1562 441.057 17.5885 440.703 17.1875C440.349 16.7812 439.87 16.5781 439.266 16.5781ZM449.344 21.7578C449.344 21.3672 449.195 21.0651 448.898 20.8516C448.607 20.6328 448.094 20.4453 447.359 20.2891C446.63 20.1328 446.049 19.9453 445.617 19.7266C445.19 19.5078 444.872 19.2474 444.664 18.9453C444.461 18.6432 444.359 18.2839 444.359 17.8672C444.359 17.1745 444.651 16.5885 445.234 16.1094C445.823 15.6302 446.573 15.3906 447.484 15.3906C448.443 15.3906 449.219 15.638 449.812 16.1328C450.411 16.6276 450.711 17.2604 450.711 18.0312H449.258C449.258 17.6354 449.089 17.2943 448.75 17.0078C448.417 16.7214 447.995 16.5781 447.484 16.5781C446.958 16.5781 446.547 16.6927 446.25 16.9219C445.953 17.151 445.805 17.4505 445.805 17.8203C445.805 18.1693 445.943 18.4323 446.219 18.6094C446.495 18.7865 446.992 18.9557 447.711 19.1172C448.435 19.2786 449.021 19.4714 449.469 19.6953C449.917 19.9193 450.247 20.1901 450.461 20.5078C450.68 20.8203 450.789 21.2031 450.789 21.6562C450.789 22.4115 450.487 23.0182 449.883 23.4766C449.279 23.9297 448.495 24.1562 447.531 24.1562C446.854 24.1562 446.255 24.0365 445.734 23.7969C445.214 23.5573 444.805 23.224 444.508 22.7969C444.216 22.3646 444.07 21.8984 444.07 21.3984H445.516C445.542 21.8828 445.734 22.2682 446.094 22.5547C446.458 22.8359 446.938 22.9766 447.531 22.9766C448.078 22.9766 448.516 22.8672 448.844 22.6484C449.177 22.4245 449.344 22.1276 449.344 21.7578ZM454.242 24H452.797V15.5469H454.242V24ZM452.68 13.3047C452.68 13.0703 452.75 12.8724 452.891 12.7109C453.036 12.5495 453.25 12.4688 453.531 12.4688C453.812 12.4688 454.026 12.5495 454.172 12.7109C454.318 12.8724 454.391 13.0703 454.391 13.3047C454.391 13.5391 454.318 13.7344 454.172 13.8906C454.026 14.0469 453.812 14.125 453.531 14.125C453.25 14.125 453.036 14.0469 452.891 13.8906C452.75 13.7344 452.68 13.5391 452.68 13.3047ZM456.18 19.6953C456.18 18.8672 456.341 18.1224 456.664 17.4609C456.992 16.7995 457.445 16.2891 458.023 15.9297C458.607 15.5703 459.271 15.3906 460.016 15.3906C461.167 15.3906 462.096 15.7891 462.805 16.5859C463.518 17.3828 463.875 18.4427 463.875 19.7656V19.8672C463.875 20.6901 463.716 21.4297 463.398 22.0859C463.086 22.737 462.635 23.2448 462.047 23.6094C461.464 23.974 460.792 24.1562 460.031 24.1562C458.885 24.1562 457.956 23.7578 457.242 22.9609C456.534 22.1641 456.18 21.1094 456.18 19.7969V19.6953ZM457.633 19.8672C457.633 20.8047 457.849 21.5573 458.281 22.125C458.719 22.6927 459.302 22.9766 460.031 22.9766C460.766 22.9766 461.349 22.6901 461.781 22.1172C462.214 21.5391 462.43 20.7318 462.43 19.6953C462.43 18.7682 462.208 18.0182 461.766 17.4453C461.328 16.8672 460.745 16.5781 460.016 16.5781C459.302 16.5781 458.727 16.862 458.289 17.4297C457.852 17.9974 457.633 18.8099 457.633 19.8672ZM467.055 15.5469L467.102 16.6094C467.747 15.7969 468.591 15.3906 469.633 15.3906C471.419 15.3906 472.32 16.3984 472.336 18.4141V24H470.891V18.4062C470.885 17.7969 470.745 17.3464 470.469 17.0547C470.198 16.763 469.773 16.6172 469.195 16.6172C468.727 16.6172 468.315 16.7422 467.961 16.9922C467.607 17.2422 467.331 17.5703 467.133 17.9766V24H465.688V15.5469H467.055ZM479.734 24C479.651 23.8333 479.583 23.5365 479.531 23.1094C478.859 23.8073 478.057 24.1562 477.125 24.1562C476.292 24.1562 475.607 23.9219 475.07 23.4531C474.539 22.9792 474.273 22.3802 474.273 21.6562C474.273 20.776 474.607 20.0938 475.273 19.6094C475.945 19.1198 476.888 18.875 478.102 18.875H479.508V18.2109C479.508 17.7057 479.357 17.3047 479.055 17.0078C478.753 16.7057 478.307 16.5547 477.719 16.5547C477.203 16.5547 476.771 16.6849 476.422 16.9453C476.073 17.2057 475.898 17.5208 475.898 17.8906H474.445C474.445 17.4688 474.594 17.0625 474.891 16.6719C475.193 16.276 475.599 15.9635 476.109 15.7344C476.625 15.5052 477.19 15.3906 477.805 15.3906C478.779 15.3906 479.542 15.6354 480.094 16.125C480.646 16.6094 480.932 17.2786 480.953 18.1328V22.0234C480.953 22.7995 481.052 23.4167 481.25 23.875V24H479.734ZM477.336 22.8984C477.789 22.8984 478.219 22.7812 478.625 22.5469C479.031 22.3125 479.326 22.0078 479.508 21.6328V19.8984H478.375C476.604 19.8984 475.719 20.4167 475.719 21.4531C475.719 21.9062 475.87 22.2604 476.172 22.5156C476.474 22.7708 476.862 22.8984 477.336 22.8984ZM484.789 24H483.344V12H484.789V24Z" fill="white"/>
</svg>
