<svg width="495" height="105" viewBox="0 0 495 105" fill="none" xmlns="http://www.w3.org/2000/svg">
<rect width="99" height="37" fill="#007B8E"/>
<path d="M28.2734 12.625L31.9922 21.9062L35.7109 12.625H37.6562V24H36.1562V19.5703L36.2969 14.7891L32.5625 24H31.4141L27.6875 14.8125L27.8359 19.5703V24H26.3359V12.625H28.2734ZM39.6953 19.6953C39.6953 18.8672 39.8568 18.1224 40.1797 17.4609C40.5078 16.7995 40.9609 16.2891 41.5391 15.9297C42.1224 15.5703 42.7865 15.3906 43.5312 15.3906C44.6823 15.3906 45.612 15.7891 46.3203 16.5859C47.0339 17.3828 47.3906 18.4427 47.3906 19.7656V19.8672C47.3906 20.6901 47.2318 21.4297 46.9141 22.0859C46.6016 22.737 46.151 23.2448 45.5625 23.6094C44.9792 23.974 44.3073 24.1562 43.5469 24.1562C42.401 24.1562 41.4714 23.7578 40.7578 22.9609C40.0495 22.1641 39.6953 21.1094 39.6953 19.7969V19.6953ZM41.1484 19.8672C41.1484 20.8047 41.3646 21.5573 41.7969 22.125C42.2344 22.6927 42.8177 22.9766 43.5469 22.9766C44.2812 22.9766 44.8646 22.6901 45.2969 22.1172C45.7292 21.5391 45.9453 20.7318 45.9453 19.6953C45.9453 18.7682 45.724 18.0182 45.2812 17.4453C44.8438 16.8672 44.2604 16.5781 43.5312 16.5781C42.8177 16.5781 42.2422 16.862 41.8047 17.4297C41.3672 17.9974 41.1484 18.8099 41.1484 19.8672ZM51.1641 13.5V15.5469H52.7422V16.6641H51.1641V21.9062C51.1641 22.2448 51.2344 22.5 51.375 22.6719C51.5156 22.8385 51.7552 22.9219 52.0938 22.9219C52.2604 22.9219 52.4896 22.8906 52.7812 22.8281V24C52.401 24.1042 52.0312 24.1562 51.6719 24.1562C51.026 24.1562 50.5391 23.9609 50.2109 23.5703C49.8828 23.1797 49.7188 22.625 49.7188 21.9062V16.6641H48.1797V15.5469H49.7188V13.5H51.1641ZM56.0078 24H54.5625V15.5469H56.0078V24ZM54.4453 13.3047C54.4453 13.0703 54.5156 12.8724 54.6562 12.7109C54.8021 12.5495 55.0156 12.4688 55.2969 12.4688C55.5781 12.4688 55.7917 12.5495 55.9375 12.7109C56.0833 12.8724 56.1562 13.0703 56.1562 13.3047C56.1562 13.5391 56.0833 13.7344 55.9375 13.8906C55.7917 14.0469 55.5781 14.125 55.2969 14.125C55.0156 14.125 54.8021 14.0469 54.6562 13.8906C54.5156 13.7344 54.4453 13.5391 54.4453 13.3047ZM61.1172 22.0391L63.2109 15.5469H64.6875L61.6562 24H60.5547L57.4922 15.5469H58.9688L61.1172 22.0391ZM65.5703 19.6953C65.5703 18.8672 65.7318 18.1224 66.0547 17.4609C66.3828 16.7995 66.8359 16.2891 67.4141 15.9297C67.9974 15.5703 68.6615 15.3906 69.4062 15.3906C70.5573 15.3906 71.487 15.7891 72.1953 16.5859C72.9089 17.3828 73.2656 18.4427 73.2656 19.7656V19.8672C73.2656 20.6901 73.1068 21.4297 72.7891 22.0859C72.4766 22.737 72.026 23.2448 71.4375 23.6094C70.8542 23.974 70.1823 24.1562 69.4219 24.1562C68.276 24.1562 67.3464 23.7578 66.6328 22.9609C65.9245 22.1641 65.5703 21.1094 65.5703 19.7969V19.6953ZM67.0234 19.8672C67.0234 20.8047 67.2396 21.5573 67.6719 22.125C68.1094 22.6927 68.6927 22.9766 69.4219 22.9766C70.1562 22.9766 70.7396 22.6901 71.1719 22.1172C71.6042 21.5391 71.8203 20.7318 71.8203 19.6953C71.8203 18.7682 71.599 18.0182 71.1562 17.4453C70.7188 16.8672 70.1354 16.5781 69.4062 16.5781C68.6927 16.5781 68.1172 16.862 67.6797 17.4297C67.2422 17.9974 67.0234 18.8099 67.0234 19.8672Z" fill="white"/>
<rect y="37" width="99" height="68" fill="white"/>
<path d="M25.5703 64.0312H20.8047L19.7344 67H18.1875L22.5312 55.625H23.8438L28.1953 67H26.6562L25.5703 64.0312ZM21.2578 62.7969H25.125L23.1875 57.4766L21.2578 62.7969ZM31.3203 56.5V58.5469H32.8984V59.6641H31.3203V64.9062C31.3203 65.2448 31.3906 65.5 31.5312 65.6719C31.6719 65.8385 31.9115 65.9219 32.25 65.9219C32.4167 65.9219 32.6458 65.8906 32.9375 65.8281V67C32.5573 67.1042 32.1875 67.1562 31.8281 67.1562C31.1823 67.1562 30.6953 66.9609 30.3672 66.5703C30.0391 66.1797 29.875 65.625 29.875 64.9062V59.6641H28.3359V58.5469H29.875V56.5H31.3203ZM38.1016 67.1562C36.9557 67.1562 36.0234 66.7812 35.3047 66.0312C34.5859 65.276 34.2266 64.2682 34.2266 63.0078V62.7422C34.2266 61.9036 34.3854 61.1562 34.7031 60.5C35.026 59.8385 35.474 59.3229 36.0469 58.9531C36.625 58.5781 37.25 58.3906 37.9219 58.3906C39.0208 58.3906 39.875 58.7526 40.4844 59.4766C41.0938 60.2005 41.3984 61.237 41.3984 62.5859V63.1875H35.6719C35.6927 64.0208 35.9349 64.6953 36.3984 65.2109C36.8672 65.7214 37.4609 65.9766 38.1797 65.9766C38.6901 65.9766 39.1224 65.8724 39.4766 65.6641C39.8307 65.4557 40.1406 65.1797 40.4062 64.8359L41.2891 65.5234C40.5807 66.612 39.5182 67.1562 38.1016 67.1562ZM37.9219 59.5781C37.3385 59.5781 36.849 59.7917 36.4531 60.2188C36.0573 60.6406 35.8125 61.2344 35.7188 62H39.9531V61.8906C39.9115 61.1562 39.7135 60.5885 39.3594 60.1875C39.0052 59.7812 38.526 59.5781 37.9219 59.5781ZM44.4453 58.5469L44.4922 59.6094C45.138 58.7969 45.9818 58.3906 47.0234 58.3906C48.8099 58.3906 49.7109 59.3984 49.7266 61.4141V67H48.2812V61.4062C48.276 60.7969 48.1354 60.3464 47.8594 60.0547C47.5885 59.763 47.1641 59.6172 46.5859 59.6172C46.1172 59.6172 45.7057 59.7422 45.3516 59.9922C44.9974 60.2422 44.7214 60.5703 44.5234 60.9766V67H43.0781V58.5469H44.4453ZM55.2969 65.9766C55.8125 65.9766 56.263 65.8203 56.6484 65.5078C57.0339 65.1953 57.2474 64.8047 57.2891 64.3359H58.6562C58.6302 64.8203 58.4635 65.2812 58.1562 65.7188C57.849 66.1562 57.4375 66.5052 56.9219 66.7656C56.4115 67.026 55.8698 67.1562 55.2969 67.1562C54.1458 67.1562 53.2292 66.7734 52.5469 66.0078C51.8698 65.237 51.5312 64.1849 51.5312 62.8516V62.6094C51.5312 61.7865 51.6823 61.0547 51.9844 60.4141C52.2865 59.7734 52.7188 59.276 53.2812 58.9219C53.849 58.5677 54.5182 58.3906 55.2891 58.3906C56.237 58.3906 57.0234 58.6745 57.6484 59.2422C58.2786 59.8099 58.6146 60.5469 58.6562 61.4531H57.2891C57.2474 60.9062 57.0391 60.4583 56.6641 60.1094C56.2943 59.7552 55.8359 59.5781 55.2891 59.5781C54.5547 59.5781 53.9844 59.8438 53.5781 60.375C53.1771 60.901 52.9766 61.6641 52.9766 62.6641V62.9375C52.9766 63.9115 53.1771 64.6615 53.5781 65.1875C53.9792 65.7135 54.5521 65.9766 55.2969 65.9766ZM61.8516 67H60.4062V58.5469H61.8516V67ZM60.2891 56.3047C60.2891 56.0703 60.3594 55.8724 60.5 55.7109C60.6458 55.5495 60.8594 55.4688 61.1406 55.4688C61.4219 55.4688 61.6354 55.5495 61.7812 55.7109C61.9271 55.8724 62 56.0703 62 56.3047C62 56.5391 61.9271 56.7344 61.7812 56.8906C61.6354 57.0469 61.4219 57.125 61.1406 57.125C60.8594 57.125 60.6458 57.0469 60.5 56.8906C60.3594 56.7344 60.2891 56.5391 60.2891 56.3047ZM63.7891 62.6953C63.7891 61.8672 63.9505 61.1224 64.2734 60.4609C64.6016 59.7995 65.0547 59.2891 65.6328 58.9297C66.2161 58.5703 66.8802 58.3906 67.625 58.3906C68.776 58.3906 69.7057 58.7891 70.4141 59.5859C71.1276 60.3828 71.4844 61.4427 71.4844 62.7656V62.8672C71.4844 63.6901 71.3255 64.4297 71.0078 65.0859C70.6953 65.737 70.2448 66.2448 69.6562 66.6094C69.0729 66.974 68.401 67.1562 67.6406 67.1562C66.4948 67.1562 65.5651 66.7578 64.8516 65.9609C64.1432 65.1641 63.7891 64.1094 63.7891 62.7969V62.6953ZM65.2422 62.8672C65.2422 63.8047 65.4583 64.5573 65.8906 65.125C66.3281 65.6927 66.9115 65.9766 67.6406 65.9766C68.375 65.9766 68.9583 65.6901 69.3906 65.1172C69.8229 64.5391 70.0391 63.7318 70.0391 62.6953C70.0391 61.7682 69.8177 61.0182 69.375 60.4453C68.9375 59.8672 68.3542 59.5781 67.625 59.5781C66.9115 59.5781 66.3359 59.862 65.8984 60.4297C65.4609 60.9974 65.2422 61.8099 65.2422 62.8672ZM68.2812 55H70.0312L67.9375 57.2969H66.7734L68.2812 55ZM74.6641 58.5469L74.7109 59.6094C75.3568 58.7969 76.2005 58.3906 77.2422 58.3906C79.0286 58.3906 79.9297 59.3984 79.9453 61.4141V67H78.5V61.4062C78.4948 60.7969 78.3542 60.3464 78.0781 60.0547C77.8073 59.763 77.3828 59.6172 76.8047 59.6172C76.3359 59.6172 75.9245 59.7422 75.5703 59.9922C75.2161 60.2422 74.9401 60.5703 74.7422 60.9766V67H73.2969V58.5469H74.6641ZM35.1562 82.3906C35.0156 83.5938 34.5703 84.5234 33.8203 85.1797C33.0755 85.8307 32.0833 86.1562 30.8438 86.1562C29.5 86.1562 28.4219 85.6745 27.6094 84.7109C26.8021 83.7474 26.3984 82.4583 26.3984 80.8438V79.75C26.3984 78.6927 26.5859 77.763 26.9609 76.9609C27.3411 76.1589 27.8776 75.5443 28.5703 75.1172C29.263 74.6849 30.0651 74.4688 30.9766 74.4688C32.1849 74.4688 33.1536 74.8073 33.8828 75.4844C34.612 76.1562 35.0365 77.0885 35.1562 78.2812H33.6484C33.5182 77.375 33.2344 76.7188 32.7969 76.3125C32.3646 75.9062 31.7578 75.7031 30.9766 75.7031C30.0182 75.7031 29.2656 76.0573 28.7188 76.7656C28.1771 77.474 27.9062 78.4818 27.9062 79.7891V80.8906C27.9062 82.125 28.1641 83.1068 28.6797 83.8359C29.1953 84.5651 29.9167 84.9297 30.8438 84.9297C31.6771 84.9297 32.3151 84.7422 32.7578 84.3672C33.2057 83.987 33.5026 83.3281 33.6484 82.3906H35.1562ZM38.5547 86H37.1094V74H38.5547V86ZM42.4453 86H40.9922V77.5469H42.4453V86ZM42.4609 74.0078H44.2109L42.1172 76.3047H40.9531L42.4609 74.0078ZM46.1953 77.5469L46.2422 78.6094C46.888 77.7969 47.7318 77.3906 48.7734 77.3906C50.5599 77.3906 51.4609 78.3984 51.4766 80.4141V86H50.0312V80.4062C50.026 79.7969 49.8854 79.3464 49.6094 79.0547C49.3385 78.763 48.9141 78.6172 48.3359 78.6172C47.8672 78.6172 47.4557 78.7422 47.1016 78.9922C46.7474 79.2422 46.4714 79.5703 46.2734 79.9766V86H44.8281V77.5469H46.1953ZM55.2266 86H53.7812V77.5469H55.2266V86ZM53.6641 75.3047C53.6641 75.0703 53.7344 74.8724 53.875 74.7109C54.0208 74.5495 54.2344 74.4688 54.5156 74.4688C54.7969 74.4688 55.0104 74.5495 55.1562 74.7109C55.3021 74.8724 55.375 75.0703 55.375 75.3047C55.375 75.5391 55.3021 75.7344 55.1562 75.8906C55.0104 76.0469 54.7969 76.125 54.5156 76.125C54.2344 76.125 54.0208 76.0469 53.875 75.8906C53.7344 75.7344 53.6641 75.5391 53.6641 75.3047ZM60.9375 84.9766C61.4531 84.9766 61.9036 84.8203 62.2891 84.5078C62.6745 84.1953 62.888 83.8047 62.9297 83.3359H64.2969C64.2708 83.8203 64.1042 84.2812 63.7969 84.7188C63.4896 85.1562 63.0781 85.5052 62.5625 85.7656C62.0521 86.026 61.5104 86.1562 60.9375 86.1562C59.7865 86.1562 58.8698 85.7734 58.1875 85.0078C57.5104 84.237 57.1719 83.1849 57.1719 81.8516V81.6094C57.1719 80.7865 57.3229 80.0547 57.625 79.4141C57.9271 78.7734 58.3594 78.276 58.9219 77.9219C59.4896 77.5677 60.1589 77.3906 60.9297 77.3906C61.8776 77.3906 62.6641 77.6745 63.2891 78.2422C63.9193 78.8099 64.2552 79.5469 64.2969 80.4531H62.9297C62.888 79.9062 62.6797 79.4583 62.3047 79.1094C61.9349 78.7552 61.4766 78.5781 60.9297 78.5781C60.1953 78.5781 59.625 78.8438 59.2188 79.375C58.8177 79.901 58.6172 80.6641 58.6172 81.6641V81.9375C58.6172 82.9115 58.8177 83.6615 59.2188 84.1875C59.6198 84.7135 60.1927 84.9766 60.9375 84.9766ZM71.1406 86C71.0573 85.8333 70.9896 85.5365 70.9375 85.1094C70.2656 85.8073 69.4635 86.1562 68.5312 86.1562C67.6979 86.1562 67.013 85.9219 66.4766 85.4531C65.9453 84.9792 65.6797 84.3802 65.6797 83.6562C65.6797 82.776 66.013 82.0938 66.6797 81.6094C67.3516 81.1198 68.2943 80.875 69.5078 80.875H70.9141V80.2109C70.9141 79.7057 70.763 79.3047 70.4609 79.0078C70.1589 78.7057 69.7135 78.5547 69.125 78.5547C68.6094 78.5547 68.1771 78.6849 67.8281 78.9453C67.4792 79.2057 67.3047 79.5208 67.3047 79.8906H65.8516C65.8516 79.4688 66 79.0625 66.2969 78.6719C66.599 78.276 67.0052 77.9635 67.5156 77.7344C68.0312 77.5052 68.5964 77.3906 69.2109 77.3906C70.1849 77.3906 70.9479 77.6354 71.5 78.125C72.0521 78.6094 72.3385 79.2786 72.3594 80.1328V84.0234C72.3594 84.7995 72.4583 85.4167 72.6562 85.875V86H71.1406ZM68.7422 84.8984C69.1953 84.8984 69.625 84.7812 70.0312 84.5469C70.4375 84.3125 70.7318 84.0078 70.9141 83.6328V81.8984H69.7812C68.0104 81.8984 67.125 82.4167 67.125 83.4531C67.125 83.9062 67.276 84.2604 67.5781 84.5156C67.8802 84.7708 68.2682 84.8984 68.7422 84.8984Z" fill="#007B8E"/>
<rect x="99" y="37" width="99" height="68" fill="white"/>
<path d="M134.289 76H132.836V66.3672L129.922 67.4375V66.125L134.062 64.5703H134.289V76ZM145.422 67.5938C145.422 68.1615 145.271 68.6667 144.969 69.1094C144.672 69.5521 144.268 69.8984 143.758 70.1484C144.352 70.4036 144.82 70.776 145.164 71.2656C145.513 71.7552 145.688 72.3099 145.688 72.9297C145.688 73.9141 145.354 74.6979 144.688 75.2812C144.026 75.8646 143.154 76.1562 142.07 76.1562C140.977 76.1562 140.099 75.8646 139.438 75.2812C138.781 74.6927 138.453 73.9089 138.453 72.9297C138.453 72.3151 138.62 71.7604 138.953 71.2656C139.292 70.7708 139.758 70.3958 140.352 70.1406C139.846 69.8906 139.448 69.5443 139.156 69.1016C138.865 68.6589 138.719 68.1562 138.719 67.5938C138.719 66.6354 139.026 65.875 139.641 65.3125C140.255 64.75 141.065 64.4688 142.07 64.4688C143.07 64.4688 143.878 64.75 144.492 65.3125C145.112 65.875 145.422 66.6354 145.422 67.5938ZM144.242 72.8984C144.242 72.263 144.039 71.7448 143.633 71.3438C143.232 70.9427 142.706 70.7422 142.055 70.7422C141.404 70.7422 140.88 70.9401 140.484 71.3359C140.094 71.7318 139.898 72.2526 139.898 72.8984C139.898 73.5443 140.089 74.0521 140.469 74.4219C140.854 74.7917 141.388 74.9766 142.07 74.9766C142.747 74.9766 143.279 74.7917 143.664 74.4219C144.049 74.0469 144.242 73.5391 144.242 72.8984ZM142.07 65.6562C141.503 65.6562 141.042 65.8333 140.688 66.1875C140.339 66.5365 140.164 67.013 140.164 67.6172C140.164 68.1953 140.336 68.6641 140.68 69.0234C141.029 69.3776 141.492 69.5547 142.07 69.5547C142.648 69.5547 143.109 69.3776 143.453 69.0234C143.802 68.6641 143.977 68.1953 143.977 67.6172C143.977 67.0391 143.797 66.5677 143.438 66.2031C143.078 65.8385 142.622 65.6562 142.07 65.6562ZM147.609 75.2422C147.609 74.9922 147.682 74.7839 147.828 74.6172C147.979 74.4505 148.203 74.3672 148.5 74.3672C148.797 74.3672 149.021 74.4505 149.172 74.6172C149.328 74.7839 149.406 74.9922 149.406 75.2422C149.406 75.4818 149.328 75.6823 149.172 75.8438C149.021 76.0052 148.797 76.0859 148.5 76.0859C148.203 76.0859 147.979 76.0052 147.828 75.8438C147.682 75.6823 147.609 75.4818 147.609 75.2422ZM147.617 68.3438C147.617 68.0938 147.69 67.8854 147.836 67.7188C147.987 67.5521 148.211 67.4688 148.508 67.4688C148.805 67.4688 149.029 67.5521 149.18 67.7188C149.336 67.8854 149.414 68.0938 149.414 68.3438C149.414 68.5833 149.336 68.7839 149.18 68.9453C149.029 69.1068 148.805 69.1875 148.508 69.1875C148.211 69.1875 147.987 69.1068 147.836 68.9453C147.69 68.7839 147.617 68.5833 147.617 68.3438ZM158.516 71.1484C158.516 72.8411 158.227 74.099 157.648 74.9219C157.07 75.7448 156.167 76.1562 154.938 76.1562C153.724 76.1562 152.826 75.7552 152.242 74.9531C151.659 74.1458 151.357 72.9427 151.336 71.3438V69.4141C151.336 67.7422 151.625 66.5 152.203 65.6875C152.781 64.875 153.688 64.4688 154.922 64.4688C156.146 64.4688 157.047 64.862 157.625 65.6484C158.203 66.4297 158.5 67.638 158.516 69.2734V71.1484ZM157.07 69.1719C157.07 67.9479 156.898 67.0573 156.555 66.5C156.211 65.9375 155.667 65.6562 154.922 65.6562C154.182 65.6562 153.643 65.9349 153.305 66.4922C152.966 67.0495 152.792 67.9062 152.781 69.0625V71.375C152.781 72.6042 152.958 73.513 153.312 74.1016C153.672 74.6849 154.214 74.9766 154.938 74.9766C155.651 74.9766 156.18 74.7005 156.523 74.1484C156.872 73.5964 157.055 72.7266 157.07 71.5391V69.1719ZM167.5 71.1484C167.5 72.8411 167.211 74.099 166.633 74.9219C166.055 75.7448 165.151 76.1562 163.922 76.1562C162.708 76.1562 161.81 75.7552 161.227 74.9531C160.643 74.1458 160.341 72.9427 160.32 71.3438V69.4141C160.32 67.7422 160.609 66.5 161.188 65.6875C161.766 64.875 162.672 64.4688 163.906 64.4688C165.13 64.4688 166.031 64.862 166.609 65.6484C167.188 66.4297 167.484 67.638 167.5 69.2734V71.1484ZM166.055 69.1719C166.055 67.9479 165.883 67.0573 165.539 66.5C165.195 65.9375 164.651 65.6562 163.906 65.6562C163.167 65.6562 162.628 65.9349 162.289 66.4922C161.951 67.0495 161.776 67.9062 161.766 69.0625V71.375C161.766 72.6042 161.943 73.513 162.297 74.1016C162.656 74.6849 163.198 74.9766 163.922 74.9766C164.635 74.9766 165.164 74.7005 165.508 74.1484C165.857 73.5964 166.039 72.7266 166.055 71.5391V69.1719Z" fill="#007B8E"/>
<rect x="198" y="37" width="99" height="68" fill="white"/>
<path d="M244.969 70.7422H240.039V74.7734H245.766V76H238.539V64.625H245.688V65.8594H240.039V69.5156H244.969V70.7422ZM248.977 76H247.531V64H248.977V76ZM254.062 73.8828L256.031 67.5469H257.578L254.18 77.3047C253.654 78.7109 252.818 79.4141 251.672 79.4141L251.398 79.3906L250.859 79.2891V78.1172L251.25 78.1484C251.74 78.1484 252.12 78.0495 252.391 77.8516C252.667 77.6536 252.893 77.2917 253.07 76.7656L253.391 75.9062L250.375 67.5469H251.953L254.062 73.8828Z" fill="#007B8E"/>
<rect x="297" y="37" width="99" height="68" fill="white"/>
<path d="M324.039 74.0078L327.289 64.625H328.93L324.711 76H323.383L319.172 64.625H320.805L324.039 74.0078ZM333.398 76.1562C332.253 76.1562 331.32 75.7812 330.602 75.0312C329.883 74.276 329.523 73.2682 329.523 72.0078V71.7422C329.523 70.9036 329.682 70.1562 330 69.5C330.323 68.8385 330.771 68.3229 331.344 67.9531C331.922 67.5781 332.547 67.3906 333.219 67.3906C334.318 67.3906 335.172 67.7526 335.781 68.4766C336.391 69.2005 336.695 70.237 336.695 71.5859V72.1875H330.969C330.99 73.0208 331.232 73.6953 331.695 74.2109C332.164 74.7214 332.758 74.9766 333.477 74.9766C333.987 74.9766 334.419 74.8724 334.773 74.6641C335.128 74.4557 335.438 74.1797 335.703 73.8359L336.586 74.5234C335.878 75.612 334.815 76.1562 333.398 76.1562ZM333.219 68.5781C332.635 68.5781 332.146 68.7917 331.75 69.2188C331.354 69.6406 331.109 70.2344 331.016 71H335.25V70.8906C335.208 70.1562 335.01 69.5885 334.656 69.1875C334.302 68.7812 333.823 68.5781 333.219 68.5781ZM342.461 68.8438C342.242 68.8073 342.005 68.7891 341.75 68.7891C340.802 68.7891 340.159 69.1927 339.82 70V76H338.375V67.5469H339.781L339.805 68.5234C340.279 67.7682 340.951 67.3906 341.82 67.3906C342.102 67.3906 342.315 67.4271 342.461 67.5V68.8438ZM343.297 71.7031C343.297 70.3854 343.602 69.3385 344.211 68.5625C344.82 67.7812 345.628 67.3906 346.633 67.3906C347.664 67.3906 348.469 67.7552 349.047 68.4844L349.117 67.5469H350.438V75.7969C350.438 76.8906 350.112 77.7526 349.461 78.3828C348.815 79.013 347.945 79.3281 346.852 79.3281C346.242 79.3281 345.646 79.1979 345.062 78.9375C344.479 78.6771 344.034 78.3203 343.727 77.8672L344.477 77C345.096 77.7656 345.854 78.1484 346.75 78.1484C347.453 78.1484 348 77.9505 348.391 77.5547C348.786 77.1589 348.984 76.6016 348.984 75.8828V75.1562C348.406 75.8229 347.617 76.1562 346.617 76.1562C345.628 76.1562 344.826 75.7578 344.211 74.9609C343.602 74.1641 343.297 73.0781 343.297 71.7031ZM344.75 71.8672C344.75 72.8203 344.945 73.5703 345.336 74.1172C345.727 74.6589 346.273 74.9297 346.977 74.9297C347.888 74.9297 348.557 74.5156 348.984 73.6875V69.8281C348.542 69.0208 347.878 68.6172 346.992 68.6172C346.289 68.6172 345.74 68.8906 345.344 69.4375C344.948 69.9844 344.75 70.7943 344.75 71.8672ZM357.844 76C357.76 75.8333 357.693 75.5365 357.641 75.1094C356.969 75.8073 356.167 76.1562 355.234 76.1562C354.401 76.1562 353.716 75.9219 353.18 75.4531C352.648 74.9792 352.383 74.3802 352.383 73.6562C352.383 72.776 352.716 72.0938 353.383 71.6094C354.055 71.1198 354.997 70.875 356.211 70.875H357.617V70.2109C357.617 69.7057 357.466 69.3047 357.164 69.0078C356.862 68.7057 356.417 68.5547 355.828 68.5547C355.312 68.5547 354.88 68.6849 354.531 68.9453C354.182 69.2057 354.008 69.5208 354.008 69.8906H352.555C352.555 69.4688 352.703 69.0625 353 68.6719C353.302 68.276 353.708 67.9635 354.219 67.7344C354.734 67.5052 355.299 67.3906 355.914 67.3906C356.888 67.3906 357.651 67.6354 358.203 68.125C358.755 68.6094 359.042 69.2786 359.062 70.1328V74.0234C359.062 74.7995 359.161 75.4167 359.359 75.875V76H357.844ZM355.445 74.8984C355.898 74.8984 356.328 74.7812 356.734 74.5469C357.141 74.3125 357.435 74.0078 357.617 73.6328V71.8984H356.484C354.714 71.8984 353.828 72.4167 353.828 73.4531C353.828 73.9062 353.979 74.2604 354.281 74.5156C354.583 74.7708 354.971 74.8984 355.445 74.8984ZM365.414 68.8438C365.195 68.8073 364.958 68.7891 364.703 68.7891C363.755 68.7891 363.112 69.1927 362.773 70V76H361.328V67.5469H362.734L362.758 68.5234C363.232 67.7682 363.904 67.3906 364.773 67.3906C365.055 67.3906 365.268 67.4271 365.414 67.5V68.8438ZM371.656 76C371.573 75.8333 371.505 75.5365 371.453 75.1094C370.781 75.8073 369.979 76.1562 369.047 76.1562C368.214 76.1562 367.529 75.9219 366.992 75.4531C366.461 74.9792 366.195 74.3802 366.195 73.6562C366.195 72.776 366.529 72.0938 367.195 71.6094C367.867 71.1198 368.81 70.875 370.023 70.875H371.43V70.2109C371.43 69.7057 371.279 69.3047 370.977 69.0078C370.674 68.7057 370.229 68.5547 369.641 68.5547C369.125 68.5547 368.693 68.6849 368.344 68.9453C367.995 69.2057 367.82 69.5208 367.82 69.8906H366.367C366.367 69.4688 366.516 69.0625 366.812 68.6719C367.115 68.276 367.521 67.9635 368.031 67.7344C368.547 67.5052 369.112 67.3906 369.727 67.3906C370.701 67.3906 371.464 67.6354 372.016 68.125C372.568 68.6094 372.854 69.2786 372.875 70.1328V74.0234C372.875 74.7995 372.974 75.4167 373.172 75.875V76H371.656ZM369.258 74.8984C369.711 74.8984 370.141 74.7812 370.547 74.5469C370.953 74.3125 371.247 74.0078 371.43 73.6328V71.8984H370.297C368.526 71.8984 367.641 72.4167 367.641 73.4531C367.641 73.9062 367.792 74.2604 368.094 74.5156C368.396 74.7708 368.784 74.8984 369.258 74.8984Z" fill="#007B8E"/>
<rect x="396" y="37" width="99" height="68" fill="white"/>
<path d="M413.609 62.3984H410.938V67H409.43V55.625H413.195C414.477 55.625 415.461 55.9167 416.148 56.5C416.841 57.0833 417.188 57.9323 417.188 59.0469C417.188 59.7552 416.995 60.3724 416.609 60.8984C416.229 61.4245 415.698 61.8177 415.016 62.0781L417.688 66.9062V67H416.078L413.609 62.3984ZM410.938 61.1719H413.242C413.987 61.1719 414.578 60.9792 415.016 60.5938C415.458 60.2083 415.68 59.6927 415.68 59.0469C415.68 58.3438 415.469 57.8047 415.047 57.4297C414.63 57.0547 414.026 56.8646 413.234 56.8594H410.938V61.1719ZM418.688 62.6953C418.688 61.8672 418.849 61.1224 419.172 60.4609C419.5 59.7995 419.953 59.2891 420.531 58.9297C421.115 58.5703 421.779 58.3906 422.523 58.3906C423.674 58.3906 424.604 58.7891 425.312 59.5859C426.026 60.3828 426.383 61.4427 426.383 62.7656V62.8672C426.383 63.6901 426.224 64.4297 425.906 65.0859C425.594 65.737 425.143 66.2448 424.555 66.6094C423.971 66.974 423.299 67.1562 422.539 67.1562C421.393 67.1562 420.464 66.7578 419.75 65.9609C419.042 65.1641 418.688 64.1094 418.688 62.7969V62.6953ZM420.141 62.8672C420.141 63.8047 420.357 64.5573 420.789 65.125C421.227 65.6927 421.81 65.9766 422.539 65.9766C423.273 65.9766 423.857 65.6901 424.289 65.1172C424.721 64.5391 424.938 63.7318 424.938 62.6953C424.938 61.7682 424.716 61.0182 424.273 60.4453C423.836 59.8672 423.253 59.5781 422.523 59.5781C421.81 59.5781 421.234 59.862 420.797 60.4297C420.359 60.9974 420.141 61.8099 420.141 62.8672ZM427.844 62.7031C427.844 61.4062 428.151 60.3646 428.766 59.5781C429.38 58.7865 430.185 58.3906 431.18 58.3906C432.169 58.3906 432.953 58.7292 433.531 59.4062V55H434.977V67H433.648L433.578 66.0938C433 66.8021 432.195 67.1562 431.164 67.1562C430.185 67.1562 429.385 66.7552 428.766 65.9531C428.151 65.151 427.844 64.1042 427.844 62.8125V62.7031ZM429.289 62.8672C429.289 63.8255 429.487 64.5755 429.883 65.1172C430.279 65.6589 430.826 65.9297 431.523 65.9297C432.44 65.9297 433.109 65.5182 433.531 64.6953V60.8125C433.099 60.0156 432.435 59.6172 431.539 59.6172C430.831 59.6172 430.279 59.8906 429.883 60.4375C429.487 60.9844 429.289 61.7943 429.289 62.8672ZM441.312 59.8438C441.094 59.8073 440.857 59.7891 440.602 59.7891C439.654 59.7891 439.01 60.1927 438.672 61V67H437.227V58.5469H438.633L438.656 59.5234C439.13 58.7682 439.802 58.3906 440.672 58.3906C440.953 58.3906 441.167 58.4271 441.312 58.5V59.8438ZM444.219 67H442.766V58.5469H444.219V67ZM444.234 55.0078H445.984L443.891 57.3047H442.727L444.234 55.0078ZM446.258 62.7031C446.258 61.3854 446.562 60.3385 447.172 59.5625C447.781 58.7812 448.589 58.3906 449.594 58.3906C450.625 58.3906 451.43 58.7552 452.008 59.4844L452.078 58.5469H453.398V66.7969C453.398 67.8906 453.073 68.7526 452.422 69.3828C451.776 70.013 450.906 70.3281 449.812 70.3281C449.203 70.3281 448.607 70.1979 448.023 69.9375C447.44 69.6771 446.995 69.3203 446.688 68.8672L447.438 68C448.057 68.7656 448.815 69.1484 449.711 69.1484C450.414 69.1484 450.961 68.9505 451.352 68.5547C451.747 68.1589 451.945 67.6016 451.945 66.8828V66.1562C451.367 66.8229 450.578 67.1562 449.578 67.1562C448.589 67.1562 447.786 66.7578 447.172 65.9609C446.562 65.1641 446.258 64.0781 446.258 62.7031ZM447.711 62.8672C447.711 63.8203 447.906 64.5703 448.297 65.1172C448.688 65.6589 449.234 65.9297 449.938 65.9297C450.849 65.9297 451.518 65.5156 451.945 64.6875V60.8281C451.503 60.0208 450.839 59.6172 449.953 59.6172C449.25 59.6172 448.701 59.8906 448.305 60.4375C447.909 60.9844 447.711 61.7943 447.711 62.8672ZM460.805 66.1641C460.242 66.8255 459.417 67.1562 458.328 67.1562C457.427 67.1562 456.74 66.8958 456.266 66.375C455.797 65.849 455.56 65.0729 455.555 64.0469V58.5469H457V64.0078C457 65.2891 457.521 65.9297 458.562 65.9297C459.667 65.9297 460.401 65.5182 460.766 64.6953V58.5469H462.211V67H460.836L460.805 66.1641ZM467.922 67.1562C466.776 67.1562 465.844 66.7812 465.125 66.0312C464.406 65.276 464.047 64.2682 464.047 63.0078V62.7422C464.047 61.9036 464.206 61.1562 464.523 60.5C464.846 59.8385 465.294 59.3229 465.867 58.9531C466.445 58.5781 467.07 58.3906 467.742 58.3906C468.841 58.3906 469.695 58.7526 470.305 59.4766C470.914 60.2005 471.219 61.237 471.219 62.5859V63.1875H465.492C465.513 64.0208 465.755 64.6953 466.219 65.2109C466.688 65.7214 467.281 65.9766 468 65.9766C468.51 65.9766 468.943 65.8724 469.297 65.6641C469.651 65.4557 469.961 65.1797 470.227 64.8359L471.109 65.5234C470.401 66.612 469.339 67.1562 467.922 67.1562ZM467.742 59.5781C467.159 59.5781 466.669 59.7917 466.273 60.2188C465.878 60.6406 465.633 61.2344 465.539 62H469.773V61.8906C469.732 61.1562 469.534 60.5885 469.18 60.1875C468.826 59.7812 468.346 59.5781 467.742 59.5781ZM474.258 65.8203H479.203V67H472.492V65.9375L477.156 59.7422H472.562V58.5469H478.969V59.5703L474.258 65.8203ZM480.789 69.2656L479.969 68.7031C480.458 68.0208 480.714 67.3177 480.734 66.5938V65.2891H482.148V66.4219C482.148 66.9479 482.018 67.474 481.758 68C481.503 68.526 481.18 68.9479 480.789 69.2656ZM419.305 83.0312H414.539L413.469 86H411.922L416.266 74.625H417.578L421.93 86H420.391L419.305 83.0312ZM414.992 81.7969H418.859L416.922 76.4766L414.992 81.7969ZM424.805 86H423.359V74H424.805V86ZM430.633 86.1562C429.487 86.1562 428.555 85.7812 427.836 85.0312C427.117 84.276 426.758 83.2682 426.758 82.0078V81.7422C426.758 80.9036 426.917 80.1562 427.234 79.5C427.557 78.8385 428.005 78.3229 428.578 77.9531C429.156 77.5781 429.781 77.3906 430.453 77.3906C431.552 77.3906 432.406 77.7526 433.016 78.4766C433.625 79.2005 433.93 80.237 433.93 81.5859V82.1875H428.203C428.224 83.0208 428.466 83.6953 428.93 84.2109C429.398 84.7214 429.992 84.9766 430.711 84.9766C431.221 84.9766 431.654 84.8724 432.008 84.6641C432.362 84.4557 432.672 84.1797 432.938 83.8359L433.82 84.5234C433.112 85.612 432.049 86.1562 430.633 86.1562ZM430.453 78.5781C429.87 78.5781 429.38 78.7917 428.984 79.2188C428.589 79.6406 428.344 80.2344 428.25 81H432.484V80.8906C432.443 80.1562 432.245 79.5885 431.891 79.1875C431.536 78.7812 431.057 78.5781 430.453 78.5781ZM437.102 77.5469V86.9766C437.102 88.6016 436.365 89.4141 434.891 89.4141C434.573 89.4141 434.279 89.3672 434.008 89.2734V88.1172C434.174 88.1589 434.393 88.1797 434.664 88.1797C434.987 88.1797 435.232 88.0911 435.398 87.9141C435.57 87.7422 435.656 87.4401 435.656 87.0078V77.5469H437.102ZM435.508 75.3047C435.508 75.0755 435.578 74.8802 435.719 74.7188C435.865 74.5521 436.076 74.4688 436.352 74.4688C436.633 74.4688 436.846 74.5495 436.992 74.7109C437.138 74.8724 437.211 75.0703 437.211 75.3047C437.211 75.5391 437.138 75.7344 436.992 75.8906C436.846 76.0469 436.633 76.125 436.352 76.125C436.07 76.125 435.859 76.0469 435.719 75.8906C435.578 75.7344 435.508 75.5391 435.508 75.3047ZM444.656 86C444.573 85.8333 444.505 85.5365 444.453 85.1094C443.781 85.8073 442.979 86.1562 442.047 86.1562C441.214 86.1562 440.529 85.9219 439.992 85.4531C439.461 84.9792 439.195 84.3802 439.195 83.6562C439.195 82.776 439.529 82.0938 440.195 81.6094C440.867 81.1198 441.81 80.875 443.023 80.875H444.43V80.2109C444.43 79.7057 444.279 79.3047 443.977 79.0078C443.674 78.7057 443.229 78.5547 442.641 78.5547C442.125 78.5547 441.693 78.6849 441.344 78.9453C440.995 79.2057 440.82 79.5208 440.82 79.8906H439.367C439.367 79.4688 439.516 79.0625 439.812 78.6719C440.115 78.276 440.521 77.9635 441.031 77.7344C441.547 77.5052 442.112 77.3906 442.727 77.3906C443.701 77.3906 444.464 77.6354 445.016 78.125C445.568 78.6094 445.854 79.2786 445.875 80.1328V84.0234C445.875 84.7995 445.974 85.4167 446.172 85.875V86H444.656ZM442.258 84.8984C442.711 84.8984 443.141 84.7812 443.547 84.5469C443.953 84.3125 444.247 84.0078 444.43 83.6328V81.8984H443.297C441.526 81.8984 440.641 82.4167 440.641 83.4531C440.641 83.9062 440.792 84.2604 441.094 84.5156C441.396 84.7708 441.784 84.8984 442.258 84.8984ZM449.508 77.5469L449.555 78.6094C450.201 77.7969 451.044 77.3906 452.086 77.3906C453.872 77.3906 454.773 78.3984 454.789 80.4141V86H453.344V80.4062C453.339 79.7969 453.198 79.3464 452.922 79.0547C452.651 78.763 452.227 78.6172 451.648 78.6172C451.18 78.6172 450.768 78.7422 450.414 78.9922C450.06 79.2422 449.784 79.5703 449.586 79.9766V86H448.141V77.5469H449.508ZM456.617 81.7031C456.617 80.4062 456.924 79.3646 457.539 78.5781C458.154 77.7865 458.958 77.3906 459.953 77.3906C460.943 77.3906 461.727 77.7292 462.305 78.4062V74H463.75V86H462.422L462.352 85.0938C461.773 85.8021 460.969 86.1562 459.938 86.1562C458.958 86.1562 458.159 85.7552 457.539 84.9531C456.924 84.151 456.617 83.1042 456.617 81.8125V81.7031ZM458.062 81.8672C458.062 82.8255 458.26 83.5755 458.656 84.1172C459.052 84.6589 459.599 84.9297 460.297 84.9297C461.214 84.9297 461.883 84.5182 462.305 83.6953V79.8125C461.872 79.0156 461.208 78.6172 460.312 78.6172C459.604 78.6172 459.052 78.8906 458.656 79.4375C458.26 79.9844 458.062 80.7943 458.062 81.8672ZM470.086 78.8438C469.867 78.8073 469.63 78.7891 469.375 78.7891C468.427 78.7891 467.784 79.1927 467.445 80V86H466V77.5469H467.406L467.43 78.5234C467.904 77.7682 468.576 77.3906 469.445 77.3906C469.727 77.3906 469.94 77.4271 470.086 77.5V78.8438ZM470.883 81.6953C470.883 80.8672 471.044 80.1224 471.367 79.4609C471.695 78.7995 472.148 78.2891 472.727 77.9297C473.31 77.5703 473.974 77.3906 474.719 77.3906C475.87 77.3906 476.799 77.7891 477.508 78.5859C478.221 79.3828 478.578 80.4427 478.578 81.7656V81.8672C478.578 82.6901 478.419 83.4297 478.102 84.0859C477.789 84.737 477.339 85.2448 476.75 85.6094C476.167 85.974 475.495 86.1562 474.734 86.1562C473.589 86.1562 472.659 85.7578 471.945 84.9609C471.237 84.1641 470.883 83.1094 470.883 81.7969V81.6953ZM472.336 81.8672C472.336 82.8047 472.552 83.5573 472.984 84.125C473.422 84.6927 474.005 84.9766 474.734 84.9766C475.469 84.9766 476.052 84.6901 476.484 84.1172C476.917 83.5391 477.133 82.7318 477.133 81.6953C477.133 80.7682 476.911 80.0182 476.469 79.4453C476.031 78.8672 475.448 78.5781 474.719 78.5781C474.005 78.5781 473.43 78.862 472.992 79.4297C472.555 79.9974 472.336 80.8099 472.336 81.8672Z" fill="#007B8E"/>
<rect x="99" width="99" height="37" fill="#007B8E"/>
<path d="M132.172 24H130.664V18.7422H124.93V24H123.43V12.625H124.93V17.5156H130.664V12.625H132.172V24ZM134.227 19.6953C134.227 18.8672 134.388 18.1224 134.711 17.4609C135.039 16.7995 135.492 16.2891 136.07 15.9297C136.654 15.5703 137.318 15.3906 138.062 15.3906C139.214 15.3906 140.143 15.7891 140.852 16.5859C141.565 17.3828 141.922 18.4427 141.922 19.7656V19.8672C141.922 20.6901 141.763 21.4297 141.445 22.0859C141.133 22.737 140.682 23.2448 140.094 23.6094C139.51 23.974 138.839 24.1562 138.078 24.1562C136.932 24.1562 136.003 23.7578 135.289 22.9609C134.581 22.1641 134.227 21.1094 134.227 19.7969V19.6953ZM135.68 19.8672C135.68 20.8047 135.896 21.5573 136.328 22.125C136.766 22.6927 137.349 22.9766 138.078 22.9766C138.812 22.9766 139.396 22.6901 139.828 22.1172C140.26 21.5391 140.477 20.7318 140.477 19.6953C140.477 18.7682 140.255 18.0182 139.812 17.4453C139.375 16.8672 138.792 16.5781 138.062 16.5781C137.349 16.5781 136.773 16.862 136.336 17.4297C135.898 17.9974 135.68 18.8099 135.68 19.8672ZM147.82 16.8438C147.602 16.8073 147.365 16.7891 147.109 16.7891C146.161 16.7891 145.518 17.1927 145.18 18V24H143.734V15.5469H145.141L145.164 16.5234C145.638 15.7682 146.31 15.3906 147.18 15.3906C147.461 15.3906 147.674 15.4271 147.82 15.5V16.8438ZM154.062 24C153.979 23.8333 153.911 23.5365 153.859 23.1094C153.188 23.8073 152.385 24.1562 151.453 24.1562C150.62 24.1562 149.935 23.9219 149.398 23.4531C148.867 22.9792 148.602 22.3802 148.602 21.6562C148.602 20.776 148.935 20.0938 149.602 19.6094C150.273 19.1198 151.216 18.875 152.43 18.875H153.836V18.2109C153.836 17.7057 153.685 17.3047 153.383 17.0078C153.081 16.7057 152.635 16.5547 152.047 16.5547C151.531 16.5547 151.099 16.6849 150.75 16.9453C150.401 17.2057 150.227 17.5208 150.227 17.8906H148.773C148.773 17.4688 148.922 17.0625 149.219 16.6719C149.521 16.276 149.927 15.9635 150.438 15.7344C150.953 15.5052 151.518 15.3906 152.133 15.3906C153.107 15.3906 153.87 15.6354 154.422 16.125C154.974 16.6094 155.26 17.2786 155.281 18.1328V22.0234C155.281 22.7995 155.38 23.4167 155.578 23.875V24H154.062ZM151.664 22.8984C152.117 22.8984 152.547 22.7812 152.953 22.5469C153.359 22.3125 153.654 22.0078 153.836 21.6328V19.8984H152.703C150.932 19.8984 150.047 20.4167 150.047 21.4531C150.047 21.9062 150.198 22.2604 150.5 22.5156C150.802 22.7708 151.19 22.8984 151.664 22.8984ZM161.633 16.8438C161.414 16.8073 161.177 16.7891 160.922 16.7891C159.974 16.7891 159.331 17.1927 158.992 18V24H157.547V15.5469H158.953L158.977 16.5234C159.451 15.7682 160.122 15.3906 160.992 15.3906C161.273 15.3906 161.487 15.4271 161.633 15.5V16.8438ZM164.539 24H163.094V15.5469H164.539V24ZM162.977 13.3047C162.977 13.0703 163.047 12.8724 163.188 12.7109C163.333 12.5495 163.547 12.4688 163.828 12.4688C164.109 12.4688 164.323 12.5495 164.469 12.7109C164.615 12.8724 164.688 13.0703 164.688 13.3047C164.688 13.5391 164.615 13.7344 164.469 13.8906C164.323 14.0469 164.109 14.125 163.828 14.125C163.547 14.125 163.333 14.0469 163.188 13.8906C163.047 13.7344 162.977 13.5391 162.977 13.3047ZM166.477 19.6953C166.477 18.8672 166.638 18.1224 166.961 17.4609C167.289 16.7995 167.742 16.2891 168.32 15.9297C168.904 15.5703 169.568 15.3906 170.312 15.3906C171.464 15.3906 172.393 15.7891 173.102 16.5859C173.815 17.3828 174.172 18.4427 174.172 19.7656V19.8672C174.172 20.6901 174.013 21.4297 173.695 22.0859C173.383 22.737 172.932 23.2448 172.344 23.6094C171.76 23.974 171.089 24.1562 170.328 24.1562C169.182 24.1562 168.253 23.7578 167.539 22.9609C166.831 22.1641 166.477 21.1094 166.477 19.7969V19.6953ZM167.93 19.8672C167.93 20.8047 168.146 21.5573 168.578 22.125C169.016 22.6927 169.599 22.9766 170.328 22.9766C171.062 22.9766 171.646 22.6901 172.078 22.1172C172.51 21.5391 172.727 20.7318 172.727 19.6953C172.727 18.7682 172.505 18.0182 172.062 17.4453C171.625 16.8672 171.042 16.5781 170.312 16.5781C169.599 16.5781 169.023 16.862 168.586 17.4297C168.148 17.9974 167.93 18.8099 167.93 19.8672Z" fill="white"/>
<rect x="198" width="99" height="37" fill="#007B8E"/>
<path d="M228.914 24H227.406L221.68 15.2344V24H220.172V12.625H221.68L227.422 21.4297V12.625H228.914V24ZM230.969 19.6953C230.969 18.8672 231.13 18.1224 231.453 17.4609C231.781 16.7995 232.234 16.2891 232.812 15.9297C233.396 15.5703 234.06 15.3906 234.805 15.3906C235.956 15.3906 236.885 15.7891 237.594 16.5859C238.307 17.3828 238.664 18.4427 238.664 19.7656V19.8672C238.664 20.6901 238.505 21.4297 238.188 22.0859C237.875 22.737 237.424 23.2448 236.836 23.6094C236.253 23.974 235.581 24.1562 234.82 24.1562C233.674 24.1562 232.745 23.7578 232.031 22.9609C231.323 22.1641 230.969 21.1094 230.969 19.7969V19.6953ZM232.422 19.8672C232.422 20.8047 232.638 21.5573 233.07 22.125C233.508 22.6927 234.091 22.9766 234.82 22.9766C235.555 22.9766 236.138 22.6901 236.57 22.1172C237.003 21.5391 237.219 20.7318 237.219 19.6953C237.219 18.7682 236.997 18.0182 236.555 17.4453C236.117 16.8672 235.534 16.5781 234.805 16.5781C234.091 16.5781 233.516 16.862 233.078 17.4297C232.641 17.9974 232.422 18.8099 232.422 19.8672ZM241.836 15.5469L241.875 16.4844C242.495 15.7552 243.331 15.3906 244.383 15.3906C245.565 15.3906 246.37 15.8438 246.797 16.75C247.078 16.3438 247.443 16.0156 247.891 15.7656C248.344 15.5156 248.878 15.3906 249.492 15.3906C251.346 15.3906 252.289 16.3724 252.32 18.3359V24H250.875V18.4219C250.875 17.8177 250.737 17.3672 250.461 17.0703C250.185 16.7682 249.721 16.6172 249.07 16.6172C248.534 16.6172 248.089 16.7786 247.734 17.1016C247.38 17.4193 247.174 17.849 247.117 18.3906V24H245.664V18.4609C245.664 17.2318 245.062 16.6172 243.859 16.6172C242.911 16.6172 242.263 17.0208 241.914 17.8281V24H240.469V15.5469H241.836ZM261.664 19.8672C261.664 21.1589 261.367 22.1979 260.773 22.9844C260.18 23.7656 259.383 24.1562 258.383 24.1562C257.315 24.1562 256.49 23.7786 255.906 23.0234L255.836 24H254.508V12H255.953V16.4766C256.536 15.7526 257.341 15.3906 258.367 15.3906C259.393 15.3906 260.198 15.7786 260.781 16.5547C261.37 17.3307 261.664 18.3932 261.664 19.7422V19.8672ZM260.219 19.7031C260.219 18.7188 260.029 17.9583 259.648 17.4219C259.268 16.8854 258.721 16.6172 258.008 16.6172C257.055 16.6172 256.37 17.0599 255.953 17.9453V21.6016C256.396 22.487 257.086 22.9297 258.023 22.9297C258.716 22.9297 259.255 22.6615 259.641 22.125C260.026 21.5885 260.219 20.7812 260.219 19.7031ZM267.578 16.8438C267.359 16.8073 267.122 16.7891 266.867 16.7891C265.919 16.7891 265.276 17.1927 264.938 18V24H263.492V15.5469H264.898L264.922 16.5234C265.396 15.7682 266.068 15.3906 266.938 15.3906C267.219 15.3906 267.432 15.4271 267.578 15.5V16.8438ZM272.266 24.1562C271.12 24.1562 270.188 23.7812 269.469 23.0312C268.75 22.276 268.391 21.2682 268.391 20.0078V19.7422C268.391 18.9036 268.549 18.1562 268.867 17.5C269.19 16.8385 269.638 16.3229 270.211 15.9531C270.789 15.5781 271.414 15.3906 272.086 15.3906C273.185 15.3906 274.039 15.7526 274.648 16.4766C275.258 17.2005 275.562 18.237 275.562 19.5859V20.1875H269.836C269.857 21.0208 270.099 21.6953 270.562 22.2109C271.031 22.7214 271.625 22.9766 272.344 22.9766C272.854 22.9766 273.286 22.8724 273.641 22.6641C273.995 22.4557 274.305 22.1797 274.57 21.8359L275.453 22.5234C274.745 23.612 273.682 24.1562 272.266 24.1562ZM272.086 16.5781C271.503 16.5781 271.013 16.7917 270.617 17.2188C270.221 17.6406 269.977 18.2344 269.883 19H274.117V18.8906C274.076 18.1562 273.878 17.5885 273.523 17.1875C273.169 16.7812 272.69 16.5781 272.086 16.5781Z" fill="white"/>
<rect x="297" width="99" height="37" fill="#007B8E"/>
<path d="M325.234 21.0312H320.469L319.398 24H317.852L322.195 12.625H323.508L327.859 24H326.32L325.234 21.0312ZM320.922 19.7969H324.789L322.852 14.4766L320.922 19.7969ZM336.305 19.8672C336.305 21.1536 336.01 22.1901 335.422 22.9766C334.833 23.763 334.036 24.1562 333.031 24.1562C332.005 24.1562 331.198 23.8307 330.609 23.1797V27.25H329.164V15.5469H330.484L330.555 16.4844C331.143 15.7552 331.961 15.3906 333.008 15.3906C334.023 15.3906 334.826 15.7734 335.414 16.5391C336.008 17.3047 336.305 18.3698 336.305 19.7344V19.8672ZM334.859 19.7031C334.859 18.75 334.656 17.9974 334.25 17.4453C333.844 16.8932 333.286 16.6172 332.578 16.6172C331.703 16.6172 331.047 17.0052 330.609 17.7812V21.8203C331.042 22.5911 331.703 22.9766 332.594 22.9766C333.286 22.9766 333.836 22.7031 334.242 22.1562C334.654 21.6042 334.859 20.7865 334.859 19.7031ZM341.656 24.1562C340.51 24.1562 339.578 23.7812 338.859 23.0312C338.141 22.276 337.781 21.2682 337.781 20.0078V19.7422C337.781 18.9036 337.94 18.1562 338.258 17.5C338.581 16.8385 339.029 16.3229 339.602 15.9531C340.18 15.5781 340.805 15.3906 341.477 15.3906C342.576 15.3906 343.43 15.7526 344.039 16.4766C344.648 17.2005 344.953 18.237 344.953 19.5859V20.1875H339.227C339.247 21.0208 339.49 21.6953 339.953 22.2109C340.422 22.7214 341.016 22.9766 341.734 22.9766C342.245 22.9766 342.677 22.8724 343.031 22.6641C343.385 22.4557 343.695 22.1797 343.961 21.8359L344.844 22.5234C344.135 23.612 343.073 24.1562 341.656 24.1562ZM341.477 16.5781C340.893 16.5781 340.404 16.7917 340.008 17.2188C339.612 17.6406 339.367 18.2344 339.273 19H343.508V18.8906C343.466 18.1562 343.268 17.5885 342.914 17.1875C342.56 16.7812 342.081 16.5781 341.477 16.5781ZM348.203 24H346.758V12H348.203V24ZM352.094 24H350.648V12H352.094V24ZM355.984 24H354.539V15.5469H355.984V24ZM354.422 13.3047C354.422 13.0703 354.492 12.8724 354.633 12.7109C354.779 12.5495 354.992 12.4688 355.273 12.4688C355.555 12.4688 355.768 12.5495 355.914 12.7109C356.06 12.8724 356.133 13.0703 356.133 13.3047C356.133 13.5391 356.06 13.7344 355.914 13.8906C355.768 14.0469 355.555 14.125 355.273 14.125C354.992 14.125 354.779 14.0469 354.633 13.8906C354.492 13.7344 354.422 13.5391 354.422 13.3047ZM357.953 19.7031C357.953 18.4062 358.26 17.3646 358.875 16.5781C359.49 15.7865 360.294 15.3906 361.289 15.3906C362.279 15.3906 363.062 15.7292 363.641 16.4062V12H365.086V24H363.758L363.688 23.0938C363.109 23.8021 362.305 24.1562 361.273 24.1562C360.294 24.1562 359.495 23.7552 358.875 22.9531C358.26 22.151 357.953 21.1042 357.953 19.8125V19.7031ZM359.398 19.8672C359.398 20.8255 359.596 21.5755 359.992 22.1172C360.388 22.6589 360.935 22.9297 361.633 22.9297C362.549 22.9297 363.219 22.5182 363.641 21.6953V17.8125C363.208 17.0156 362.544 16.6172 361.648 16.6172C360.94 16.6172 360.388 16.8906 359.992 17.4375C359.596 17.9844 359.398 18.7943 359.398 19.8672ZM366.953 19.6953C366.953 18.8672 367.115 18.1224 367.438 17.4609C367.766 16.7995 368.219 16.2891 368.797 15.9297C369.38 15.5703 370.044 15.3906 370.789 15.3906C371.94 15.3906 372.87 15.7891 373.578 16.5859C374.292 17.3828 374.648 18.4427 374.648 19.7656V19.8672C374.648 20.6901 374.49 21.4297 374.172 22.0859C373.859 22.737 373.409 23.2448 372.82 23.6094C372.237 23.974 371.565 24.1562 370.805 24.1562C369.659 24.1562 368.729 23.7578 368.016 22.9609C367.307 22.1641 366.953 21.1094 366.953 19.7969V19.6953ZM368.406 19.8672C368.406 20.8047 368.622 21.5573 369.055 22.125C369.492 22.6927 370.076 22.9766 370.805 22.9766C371.539 22.9766 372.122 22.6901 372.555 22.1172C372.987 21.5391 373.203 20.7318 373.203 19.6953C373.203 18.7682 372.982 18.0182 372.539 17.4453C372.102 16.8672 371.518 16.5781 370.789 16.5781C370.076 16.5781 369.5 16.862 369.062 17.4297C368.625 17.9974 368.406 18.8099 368.406 19.8672Z" fill="white"/>
<rect x="396" width="99" height="37" fill="#007B8E"/>
<path d="M407.805 19.5469V24H406.305V12.625H410.5C411.745 12.625 412.719 12.9427 413.422 13.5781C414.13 14.2135 414.484 15.0547 414.484 16.1016C414.484 17.2057 414.138 18.0573 413.445 18.6562C412.758 19.25 411.771 19.5469 410.484 19.5469H407.805ZM407.805 18.3203H410.5C411.302 18.3203 411.917 18.1328 412.344 17.7578C412.771 17.3776 412.984 16.8307 412.984 16.1172C412.984 15.4401 412.771 14.8984 412.344 14.4922C411.917 14.0859 411.331 13.875 410.586 13.8594H407.805V18.3203ZM420.258 16.8438C420.039 16.8073 419.802 16.7891 419.547 16.7891C418.599 16.7891 417.956 17.1927 417.617 18V24H416.172V15.5469H417.578L417.602 16.5234C418.076 15.7682 418.747 15.3906 419.617 15.3906C419.898 15.3906 420.112 15.4271 420.258 15.5V16.8438ZM421.055 19.6953C421.055 18.8672 421.216 18.1224 421.539 17.4609C421.867 16.7995 422.32 16.2891 422.898 15.9297C423.482 15.5703 424.146 15.3906 424.891 15.3906C426.042 15.3906 426.971 15.7891 427.68 16.5859C428.393 17.3828 428.75 18.4427 428.75 19.7656V19.8672C428.75 20.6901 428.591 21.4297 428.273 22.0859C427.961 22.737 427.51 23.2448 426.922 23.6094C426.339 23.974 425.667 24.1562 424.906 24.1562C423.76 24.1562 422.831 23.7578 422.117 22.9609C421.409 22.1641 421.055 21.1094 421.055 19.7969V19.6953ZM422.508 19.8672C422.508 20.8047 422.724 21.5573 423.156 22.125C423.594 22.6927 424.177 22.9766 424.906 22.9766C425.641 22.9766 426.224 22.6901 426.656 22.1172C427.089 21.5391 427.305 20.7318 427.305 19.6953C427.305 18.7682 427.083 18.0182 426.641 17.4453C426.203 16.8672 425.62 16.5781 424.891 16.5781C424.177 16.5781 423.602 16.862 423.164 17.4297C422.727 17.9974 422.508 18.8099 422.508 19.8672ZM431.273 24V16.6641H429.938V15.5469H431.273V14.6797C431.273 13.7734 431.516 13.0729 432 12.5781C432.484 12.0833 433.169 11.8359 434.055 11.8359C434.388 11.8359 434.719 11.8802 435.047 11.9688L434.969 13.1406C434.724 13.0938 434.464 13.0703 434.188 13.0703C433.719 13.0703 433.357 13.2083 433.102 13.4844C432.846 13.7552 432.719 14.1458 432.719 14.6562V15.5469H434.523V16.6641H432.719V24H431.273ZM439.445 24.1562C438.299 24.1562 437.367 23.7812 436.648 23.0312C435.93 22.276 435.57 21.2682 435.57 20.0078V19.7422C435.57 18.9036 435.729 18.1562 436.047 17.5C436.37 16.8385 436.818 16.3229 437.391 15.9531C437.969 15.5781 438.594 15.3906 439.266 15.3906C440.365 15.3906 441.219 15.7526 441.828 16.4766C442.438 17.2005 442.742 18.237 442.742 19.5859V20.1875H437.016C437.036 21.0208 437.279 21.6953 437.742 22.2109C438.211 22.7214 438.805 22.9766 439.523 22.9766C440.034 22.9766 440.466 22.8724 440.82 22.6641C441.174 22.4557 441.484 22.1797 441.75 21.8359L442.633 22.5234C441.924 23.612 440.862 24.1562 439.445 24.1562ZM439.266 16.5781C438.682 16.5781 438.193 16.7917 437.797 17.2188C437.401 17.6406 437.156 18.2344 437.062 19H441.297V18.8906C441.255 18.1562 441.057 17.5885 440.703 17.1875C440.349 16.7812 439.87 16.5781 439.266 16.5781ZM449.344 21.7578C449.344 21.3672 449.195 21.0651 448.898 20.8516C448.607 20.6328 448.094 20.4453 447.359 20.2891C446.63 20.1328 446.049 19.9453 445.617 19.7266C445.19 19.5078 444.872 19.2474 444.664 18.9453C444.461 18.6432 444.359 18.2839 444.359 17.8672C444.359 17.1745 444.651 16.5885 445.234 16.1094C445.823 15.6302 446.573 15.3906 447.484 15.3906C448.443 15.3906 449.219 15.638 449.812 16.1328C450.411 16.6276 450.711 17.2604 450.711 18.0312H449.258C449.258 17.6354 449.089 17.2943 448.75 17.0078C448.417 16.7214 447.995 16.5781 447.484 16.5781C446.958 16.5781 446.547 16.6927 446.25 16.9219C445.953 17.151 445.805 17.4505 445.805 17.8203C445.805 18.1693 445.943 18.4323 446.219 18.6094C446.495 18.7865 446.992 18.9557 447.711 19.1172C448.435 19.2786 449.021 19.4714 449.469 19.6953C449.917 19.9193 450.247 20.1901 450.461 20.5078C450.68 20.8203 450.789 21.2031 450.789 21.6562C450.789 22.4115 450.487 23.0182 449.883 23.4766C449.279 23.9297 448.495 24.1562 447.531 24.1562C446.854 24.1562 446.255 24.0365 445.734 23.7969C445.214 23.5573 444.805 23.224 444.508 22.7969C444.216 22.3646 444.07 21.8984 444.07 21.3984H445.516C445.542 21.8828 445.734 22.2682 446.094 22.5547C446.458 22.8359 446.938 22.9766 447.531 22.9766C448.078 22.9766 448.516 22.8672 448.844 22.6484C449.177 22.4245 449.344 22.1276 449.344 21.7578ZM454.242 24H452.797V15.5469H454.242V24ZM452.68 13.3047C452.68 13.0703 452.75 12.8724 452.891 12.7109C453.036 12.5495 453.25 12.4688 453.531 12.4688C453.812 12.4688 454.026 12.5495 454.172 12.7109C454.318 12.8724 454.391 13.0703 454.391 13.3047C454.391 13.5391 454.318 13.7344 454.172 13.8906C454.026 14.0469 453.812 14.125 453.531 14.125C453.25 14.125 453.036 14.0469 452.891 13.8906C452.75 13.7344 452.68 13.5391 452.68 13.3047ZM456.18 19.6953C456.18 18.8672 456.341 18.1224 456.664 17.4609C456.992 16.7995 457.445 16.2891 458.023 15.9297C458.607 15.5703 459.271 15.3906 460.016 15.3906C461.167 15.3906 462.096 15.7891 462.805 16.5859C463.518 17.3828 463.875 18.4427 463.875 19.7656V19.8672C463.875 20.6901 463.716 21.4297 463.398 22.0859C463.086 22.737 462.635 23.2448 462.047 23.6094C461.464 23.974 460.792 24.1562 460.031 24.1562C458.885 24.1562 457.956 23.7578 457.242 22.9609C456.534 22.1641 456.18 21.1094 456.18 19.7969V19.6953ZM457.633 19.8672C457.633 20.8047 457.849 21.5573 458.281 22.125C458.719 22.6927 459.302 22.9766 460.031 22.9766C460.766 22.9766 461.349 22.6901 461.781 22.1172C462.214 21.5391 462.43 20.7318 462.43 19.6953C462.43 18.7682 462.208 18.0182 461.766 17.4453C461.328 16.8672 460.745 16.5781 460.016 16.5781C459.302 16.5781 458.727 16.862 458.289 17.4297C457.852 17.9974 457.633 18.8099 457.633 19.8672ZM467.055 15.5469L467.102 16.6094C467.747 15.7969 468.591 15.3906 469.633 15.3906C471.419 15.3906 472.32 16.3984 472.336 18.4141V24H470.891V18.4062C470.885 17.7969 470.745 17.3464 470.469 17.0547C470.198 16.763 469.773 16.6172 469.195 16.6172C468.727 16.6172 468.315 16.7422 467.961 16.9922C467.607 17.2422 467.331 17.5703 467.133 17.9766V24H465.688V15.5469H467.055ZM479.734 24C479.651 23.8333 479.583 23.5365 479.531 23.1094C478.859 23.8073 478.057 24.1562 477.125 24.1562C476.292 24.1562 475.607 23.9219 475.07 23.4531C474.539 22.9792 474.273 22.3802 474.273 21.6562C474.273 20.776 474.607 20.0938 475.273 19.6094C475.945 19.1198 476.888 18.875 478.102 18.875H479.508V18.2109C479.508 17.7057 479.357 17.3047 479.055 17.0078C478.753 16.7057 478.307 16.5547 477.719 16.5547C477.203 16.5547 476.771 16.6849 476.422 16.9453C476.073 17.2057 475.898 17.5208 475.898 17.8906H474.445C474.445 17.4688 474.594 17.0625 474.891 16.6719C475.193 16.276 475.599 15.9635 476.109 15.7344C476.625 15.5052 477.19 15.3906 477.805 15.3906C478.779 15.3906 479.542 15.6354 480.094 16.125C480.646 16.6094 480.932 17.2786 480.953 18.1328V22.0234C480.953 22.7995 481.052 23.4167 481.25 23.875V24H479.734ZM477.336 22.8984C477.789 22.8984 478.219 22.7812 478.625 22.5469C479.031 22.3125 479.326 22.0078 479.508 21.6328V19.8984H478.375C476.604 19.8984 475.719 20.4167 475.719 21.4531C475.719 21.9062 475.87 22.2604 476.172 22.5156C476.474 22.7708 476.862 22.8984 477.336 22.8984ZM484.789 24H483.344V12H484.789V24Z" fill="white"/>
</svg>
